<?xml version="1.0" encoding="UTF-8" standalone="no"?>
<!-- Created with Inkscape (http://www.inkscape.org/) -->

<svg
   width="90mm"
   height="48mm"
   viewBox="0 0 90.000002 48.000001"
   version="1.1"
   id="svg5"
   xmlns:xlink="http://www.w3.org/1999/xlink"
   xmlns="http://www.w3.org/2000/svg"
   xmlns:svg="http://www.w3.org/2000/svg">
  <defs
     id="defs2">
    <rect
       x="2832"
       y="1194"
       width="8"
       height="4"
       id="rect142878" />
    <rect
       x="335.38434"
       y="181.07834"
       width="18.984018"
       height="5.8412366"
       id="rect9268" />
    <marker
       style="overflow:visible"
       id="marker11889"
       refX="0"
       refY="0"
       orient="auto">
      <path
         transform="scale(-0.6)"
         d="M 8.7185878,4.0337352 -2.2072895,0.01601326 8.7185884,-4.0017078 c -1.7454984,2.3720609 -1.7354408,5.6174519 -6e-7,8.035443 z"
         style="fill:context-stroke;fill-rule:evenodd;stroke-width:0.625;stroke-linejoin:round"
         id="path11655" />
    </marker>
    <marker
       id="ExperimentalArrow"
       refX="5"
       refY="3"
       orient="auto-start-reverse">
      <path
         style="fill:context-stroke"
         d="M 10,3 0,6 V 0 Z"
         id="path237637" />
    </marker>
    <marker
       style="overflow:visible"
       id="Tail"
       refX="0"
       refY="0"
       orient="auto">
      <g
         transform="scale(-1.2)"
         id="g237432">
        <path
           style="fill:none;fill-rule:evenodd;stroke:context-stroke;stroke-width:0.8;stroke-linecap:round"
           d="M -3.8048674,-3.9585227 0.54352094,0"
           id="path237420" />
        <path
           style="fill:none;fill-rule:evenodd;stroke:context-stroke;stroke-width:0.8;stroke-linecap:round"
           d="M -1.2866832,-3.9585227 3.0617053,0"
           id="path237422" />
        <path
           style="fill:none;fill-rule:evenodd;stroke:context-stroke;stroke-width:0.8;stroke-linecap:round"
           d="M 1.3053582,-3.9585227 5.6537466,0"
           id="path237424" />
        <path
           style="fill:none;fill-rule:evenodd;stroke:context-stroke;stroke-width:0.8;stroke-linecap:round"
           d="M -3.8048674,4.1775838 0.54352094,0.21974226"
           id="path237426" />
        <path
           style="fill:none;fill-rule:evenodd;stroke:context-stroke;stroke-width:0.8;stroke-linecap:round"
           d="M -1.2866832,4.1775838 3.0617053,0.21974226"
           id="path237428" />
        <path
           style="fill:none;fill-rule:evenodd;stroke:context-stroke;stroke-width:0.8;stroke-linecap:round"
           d="M 1.3053582,4.1775838 5.6537466,0.21974226"
           id="path237430" />
      </g>
    </marker>
    <marker
       style="overflow:visible"
       id="marker238432"
       refX="0"
       refY="0"
       orient="auto">
      <path
         transform="scale(-0.6)"
         d="M 8.7185878,4.0337352 -2.2072895,0.01601326 8.7185884,-4.0017078 c -1.7454984,2.3720609 -1.7354408,5.6174519 -6e-7,8.035443 z"
         style="fill:context-stroke;fill-rule:evenodd;stroke-width:0.625;stroke-linejoin:round"
         id="path238430" />
    </marker>
    <marker
       style="overflow:visible"
       id="marker238083"
       refX="0"
       refY="0"
       orient="auto">
      <path
         transform="scale(-0.6)"
         d="M 8.7185878,4.0337352 -2.2072895,0.01601326 8.7185884,-4.0017078 c -1.7454984,2.3720609 -1.7354408,5.6174519 -6e-7,8.035443 z"
         style="fill:context-stroke;fill-rule:evenodd;stroke-width:0.625;stroke-linejoin:round"
         id="path238081" />
    </marker>
    <marker
       style="overflow:visible"
       id="Arrow2Mend"
       refX="0"
       refY="0"
       orient="auto">
      <path
         transform="scale(-0.6)"
         d="M 8.7185878,4.0337352 -2.2072895,0.01601326 8.7185884,-4.0017078 c -1.7454984,2.3720609 -1.7354408,5.6174519 -6e-7,8.035443 z"
         style="fill:context-stroke;fill-rule:evenodd;stroke-width:0.625;stroke-linejoin:round"
         id="path237411" />
    </marker>
    <linearGradient
       id="linearGradient12387">
      <stop
         style="stop-color:#000000;stop-opacity:1;"
         offset="0"
         id="stop12383" />
      <stop
         style="stop-color:#000000;stop-opacity:0;"
         offset="1"
         id="stop12385" />
    </linearGradient>
    <filter
       style="color-interpolation-filters:sRGB"
       id="filter97634"
       x="0"
       y="0"
       width="1"
       height="1">
      <feColorMatrix
         values="-1 0 0 0 1 0 -1 0 0 1 0 0 -1 0 1 0.21 0.72 0.07 1 0 "
         result="color2"
         id="feColorMatrix97632" />
    </filter>
    <filter
       style="color-interpolation-filters:sRGB"
       id="filter97634-0"
       x="0"
       y="0"
       width="1"
       height="1">
      <feColorMatrix
         values="-1 0 0 0 1 0 -1 0 0 1 0 0 -1 0 1 0.21 0.72 0.07 1 0 "
         result="color2"
         id="feColorMatrix97632-9" />
    </filter>
    <filter
       style="color-interpolation-filters:sRGB"
       id="filter97634-7"
       x="0"
       y="0"
       width="1"
       height="1">
      <feColorMatrix
         values="-1 0 0 0 1 0 -1 0 0 1 0 0 -1 0 1 0.21 0.72 0.07 1 0 "
         result="color2"
         id="feColorMatrix97632-5" />
    </filter>
    <marker
       style="overflow:visible"
       id="marker6277-1-8-7-9-2-8-0-4-9-9-2-2-4-9-9"
       refX="0"
       refY="0"
       orient="auto">
      <path
         transform="scale(-0.6)"
         d="M 8.7185878,4.0337352 -2.2072895,0.01601326 8.7185884,-4.0017078 c -1.7454984,2.3720609 -1.7354408,5.6174519 -6e-7,8.035443 z"
         style="fill:#4a1919;fill-opacity:1;fill-rule:evenodd;stroke:#4a1919;stroke-width:0.625;stroke-linejoin:round;stroke-opacity:1"
         id="path6275-1-5-8-27-1-8-5-9-9-5-1-9-6-0-1" />
    </marker>
    <marker
       style="overflow:visible"
       id="marker6277-1-8-7-9-2-8-0-4-9-9-2-2-4-9-9-0"
       refX="0"
       refY="0"
       orient="auto">
      <path
         transform="scale(-0.6)"
         d="M 8.7185878,4.0337352 -2.2072895,0.01601326 8.7185884,-4.0017078 c -1.7454984,2.3720609 -1.7354408,5.6174519 -6e-7,8.035443 z"
         style="fill:#4a1919;fill-opacity:1;fill-rule:evenodd;stroke:#4a1919;stroke-width:0.625;stroke-linejoin:round;stroke-opacity:1"
         id="path6275-1-5-8-27-1-8-5-9-9-5-1-9-6-0-1-8" />
    </marker>
    <marker
       style="overflow:visible"
       id="marker6277-1-8-7-9-2-8-0-4-9-9-2-2-4-9-9-3"
       refX="0"
       refY="0"
       orient="auto">
      <path
         transform="scale(-0.6)"
         d="M 8.7185878,4.0337352 -2.2072895,0.01601326 8.7185884,-4.0017078 c -1.7454984,2.3720609 -1.7354408,5.6174519 -6e-7,8.035443 z"
         style="fill:#4a1919;fill-opacity:1;fill-rule:evenodd;stroke:#4a1919;stroke-width:0.625;stroke-linejoin:round;stroke-opacity:1"
         id="path6275-1-5-8-27-1-8-5-9-9-5-1-9-6-0-1-0" />
    </marker>
    <marker
       style="overflow:visible"
       id="marker6277-1-8-7-9-2-8-0-4-9-9-2-2-4-9-9-7"
       refX="0"
       refY="0"
       orient="auto">
      <path
         transform="scale(-0.6)"
         d="M 8.7185878,4.0337352 -2.2072895,0.01601326 8.7185884,-4.0017078 c -1.7454984,2.3720609 -1.7354408,5.6174519 -6e-7,8.035443 z"
         style="fill:#4a1919;fill-opacity:1;fill-rule:evenodd;stroke:#4a1919;stroke-width:0.625;stroke-linejoin:round;stroke-opacity:1"
         id="path6275-1-5-8-27-1-8-5-9-9-5-1-9-6-0-1-5" />
    </marker>
    <filter
       style="color-interpolation-filters:sRGB"
       id="filter97634-9"
       x="0"
       y="0"
       width="1"
       height="1">
      <feColorMatrix
         values="-1 0 0 0 1 0 -1 0 0 1 0 0 -1 0 1 0.21 0.72 0.07 1 0 "
         result="color2"
         id="feColorMatrix97632-2" />
    </filter>
    <marker
       style="overflow:visible"
       id="marker6277-1-8-7-9-2-8-0-4-9-9-2-2-4-9-9-7-7"
       refX="0"
       refY="0"
       orient="auto">
      <path
         transform="scale(-0.6)"
         d="M 8.7185878,4.0337352 -2.2072895,0.01601326 8.7185884,-4.0017078 c -1.7454984,2.3720609 -1.7354408,5.6174519 -6e-7,8.035443 z"
         style="fill:#4a1919;fill-opacity:1;fill-rule:evenodd;stroke:#4a1919;stroke-width:0.625;stroke-linejoin:round;stroke-opacity:1"
         id="path6275-1-5-8-27-1-8-5-9-9-5-1-9-6-0-1-5-1" />
    </marker>
    <filter
       style="color-interpolation-filters:sRGB"
       id="filter97634-9-8"
       x="0"
       y="0"
       width="1"
       height="1">
      <feColorMatrix
         values="-1 0 0 0 1 0 -1 0 0 1 0 0 -1 0 1 0.21 0.72 0.07 1 0 "
         result="color2"
         id="feColorMatrix97632-2-5" />
    </filter>
    <linearGradient
       xlink:href="#linearGradient12387"
       id="linearGradient13613"
       gradientUnits="userSpaceOnUse"
       x1="350.61414"
       y1="-25.883547"
       x2="661.80835"
       y2="-25.883547" />
    <filter
       style="color-interpolation-filters:sRGB"
       id="filter13765"
       x="0"
       y="0"
       width="1"
       height="1">
      <feComposite
         in2="SourceGraphic"
         operator="arithmetic"
         k4="1"
         result="result1"
         id="feComposite13757"
         k1="0"
         k2="0"
         k3="0" />
      <feMerge
         id="feMerge13763">
        <feMergeNode
           in="result1"
           id="feMergeNode13759" />
        <feMergeNode
           in="SourceGraphic"
           id="feMergeNode13761" />
      </feMerge>
    </filter>
    <marker
       style="overflow:visible"
       id="marker6277-1-8-7-9-2-8-0-4-9-9-2-2-4-9-9-1"
       refX="0"
       refY="0"
       orient="auto">
      <path
         transform="scale(-0.6)"
         d="M 8.7185878,4.0337352 -2.2072895,0.01601326 8.7185884,-4.0017078 c -1.7454984,2.3720609 -1.7354408,5.6174519 -6e-7,8.035443 z"
         style="fill:#4a1919;fill-opacity:1;fill-rule:evenodd;stroke:#4a1919;stroke-width:0.625;stroke-linejoin:round;stroke-opacity:1"
         id="path6275-1-5-8-27-1-8-5-9-9-5-1-9-6-0-1-2" />
    </marker>
    <marker
       style="overflow:visible"
       id="marker6277-1-8-7-9-2-8-0-4-9-9-2-2-4-9-9-1-9"
       refX="0"
       refY="0"
       orient="auto">
      <path
         transform="scale(-0.6)"
         d="M 8.7185878,4.0337352 -2.2072895,0.01601326 8.7185884,-4.0017078 c -1.7454984,2.3720609 -1.7354408,5.6174519 -6e-7,8.035443 z"
         style="fill:#4a1919;fill-opacity:1;fill-rule:evenodd;stroke:#4a1919;stroke-width:0.625;stroke-linejoin:round;stroke-opacity:1"
         id="path6275-1-5-8-27-1-8-5-9-9-5-1-9-6-0-1-2-7" />
    </marker>
    <marker
       style="overflow:visible"
       id="marker6277-1-8-7-9-2-8-0-4-9-9-2-2-4-9-9-1-5"
       refX="0"
       refY="0"
       orient="auto">
      <path
         transform="scale(-0.6)"
         d="M 8.7185878,4.0337352 -2.2072895,0.01601326 8.7185884,-4.0017078 c -1.7454984,2.3720609 -1.7354408,5.6174519 -6e-7,8.035443 z"
         style="fill:#4a1919;fill-opacity:1;fill-rule:evenodd;stroke:#4a1919;stroke-width:0.625;stroke-linejoin:round;stroke-opacity:1"
         id="path6275-1-5-8-27-1-8-5-9-9-5-1-9-6-0-1-2-3" />
    </marker>
    <marker
       style="overflow:visible"
       id="marker6277-1-8-7-9-2-8-0-4-9-9-2-2-4-9-9-1-6"
       refX="0"
       refY="0"
       orient="auto">
      <path
         transform="scale(-0.6)"
         d="M 8.7185878,4.0337352 -2.2072895,0.01601326 8.7185884,-4.0017078 c -1.7454984,2.3720609 -1.7354408,5.6174519 -6e-7,8.035443 z"
         style="fill:#4a1919;fill-opacity:1;fill-rule:evenodd;stroke:#4a1919;stroke-width:0.625;stroke-linejoin:round;stroke-opacity:1"
         id="path6275-1-5-8-27-1-8-5-9-9-5-1-9-6-0-1-2-2" />
    </marker>
    <marker
       style="overflow:visible"
       id="marker6277-1-8-7-9-2-8-0-4-9-9-2-2-4-9-9-1-6-3"
       refX="0"
       refY="0"
       orient="auto">
      <path
         transform="scale(-0.6)"
         d="M 8.7185878,4.0337352 -2.2072895,0.01601326 8.7185884,-4.0017078 c -1.7454984,2.3720609 -1.7354408,5.6174519 -6e-7,8.035443 z"
         style="fill:#4a1919;fill-opacity:1;fill-rule:evenodd;stroke:#4a1919;stroke-width:0.625;stroke-linejoin:round;stroke-opacity:1"
         id="path6275-1-5-8-27-1-8-5-9-9-5-1-9-6-0-1-2-2-8" />
    </marker>
    <marker
       style="overflow:visible"
       id="marker6277-1-8-7-9-2-8-0-4-9-9-2-2-4-7-6-6-5-39"
       refX="0"
       refY="0"
       orient="auto">
      <path
         transform="scale(-0.6)"
         d="M 8.7185878,4.0337352 -2.2072895,0.01601326 8.7185884,-4.0017078 c -1.7454984,2.3720609 -1.7354408,5.6174519 -6e-7,8.035443 z"
         style="fill:#000000;fill-opacity:1;fill-rule:evenodd;stroke:#000000;stroke-width:0.625;stroke-linejoin:round;stroke-opacity:1"
         id="path6275-1-5-8-27-1-8-5-9-9-5-1-9-6-8-6-0-8-8" />
    </marker>
    <marker
       style="overflow:visible"
       id="marker6277-1-8-7-9-2-8-0-4-9-9-2-2-4-9-9-1-5-5"
       refX="0"
       refY="0"
       orient="auto">
      <path
         transform="scale(-0.6)"
         d="M 8.7185878,4.0337352 -2.2072895,0.01601326 8.7185884,-4.0017078 c -1.7454984,2.3720609 -1.7354408,5.6174519 -6e-7,8.035443 z"
         style="fill:#4a1919;fill-opacity:1;fill-rule:evenodd;stroke:#4a1919;stroke-width:0.625;stroke-linejoin:round;stroke-opacity:1"
         id="path6275-1-5-8-27-1-8-5-9-9-5-1-9-6-0-1-2-3-7" />
    </marker>
    <marker
       style="overflow:visible"
       id="marker6277-1-8-7-9-2-8-0-4-9-9-2-2-4-9-9-1-9-0"
       refX="0"
       refY="0"
       orient="auto">
      <path
         transform="scale(-0.6)"
         d="M 8.7185878,4.0337352 -2.2072895,0.01601326 8.7185884,-4.0017078 c -1.7454984,2.3720609 -1.7354408,5.6174519 -6e-7,8.035443 z"
         style="fill:#4a1919;fill-opacity:1;fill-rule:evenodd;stroke:#4a1919;stroke-width:0.625;stroke-linejoin:round;stroke-opacity:1"
         id="path6275-1-5-8-27-1-8-5-9-9-5-1-9-6-0-1-2-7-3" />
    </marker>
    <marker
       style="overflow:visible"
       id="marker6277-1-8-7-9-2-8-0-4-9-9-2-2-4-9-9-1-9-0-7"
       refX="0"
       refY="0"
       orient="auto">
      <path
         transform="scale(-0.6)"
         d="M 8.7185878,4.0337352 -2.2072895,0.01601326 8.7185884,-4.0017078 c -1.7454984,2.3720609 -1.7354408,5.6174519 -6e-7,8.035443 z"
         style="fill:#4a1919;fill-opacity:1;fill-rule:evenodd;stroke:#4a1919;stroke-width:0.625;stroke-linejoin:round;stroke-opacity:1"
         id="path6275-1-5-8-27-1-8-5-9-9-5-1-9-6-0-1-2-7-3-5" />
    </marker>
    <marker
       style="overflow:visible"
       id="marker6277-1-8-7-9-2-8-0-4-9-9-2-2-4-9-9-1-9-0-7-1"
       refX="0"
       refY="0"
       orient="auto">
      <path
         transform="scale(-0.6)"
         d="M 8.7185878,4.0337352 -2.2072895,0.01601326 8.7185884,-4.0017078 c -1.7454984,2.3720609 -1.7354408,5.6174519 -6e-7,8.035443 z"
         style="fill:#4a1919;fill-opacity:1;fill-rule:evenodd;stroke:#4a1919;stroke-width:0.625;stroke-linejoin:round;stroke-opacity:1"
         id="path6275-1-5-8-27-1-8-5-9-9-5-1-9-6-0-1-2-7-3-5-1" />
    </marker>
    <marker
       style="overflow:visible"
       id="marker6277-1-8-7-9-2-8-0-4-9-9-2-2-4-9-9-1-9-3"
       refX="0"
       refY="0"
       orient="auto">
      <path
         transform="scale(-0.6)"
         d="M 8.7185878,4.0337352 -2.2072895,0.01601326 8.7185884,-4.0017078 c -1.7454984,2.3720609 -1.7354408,5.6174519 -6e-7,8.035443 z"
         style="fill:#4a1919;fill-opacity:1;fill-rule:evenodd;stroke:#4a1919;stroke-width:0.625;stroke-linejoin:round;stroke-opacity:1"
         id="path6275-1-5-8-27-1-8-5-9-9-5-1-9-6-0-1-2-7-4" />
    </marker>
    <marker
       style="overflow:visible"
       id="marker6277-1-8-7-9-2-8-0-4-9-9-2-2-4-7-6-6-5-39-6"
       refX="0"
       refY="0"
       orient="auto">
      <path
         transform="scale(-0.6)"
         d="M 8.7185878,4.0337352 -2.2072895,0.01601326 8.7185884,-4.0017078 c -1.7454984,2.3720609 -1.7354408,5.6174519 -6e-7,8.035443 z"
         style="fill:#000000;fill-opacity:1;fill-rule:evenodd;stroke:#000000;stroke-width:0.625;stroke-linejoin:round;stroke-opacity:1"
         id="path6275-1-5-8-27-1-8-5-9-9-5-1-9-6-8-6-0-8-8-7" />
    </marker>
    <marker
       style="overflow:visible"
       id="marker6277-1-8-7-9-2-8-0-4-9-9-2-2-4-7-6-6-5-39-6-0"
       refX="0"
       refY="0"
       orient="auto">
      <path
         transform="scale(-0.6)"
         d="M 8.7185878,4.0337352 -2.2072895,0.01601326 8.7185884,-4.0017078 c -1.7454984,2.3720609 -1.7354408,5.6174519 -6e-7,8.035443 z"
         style="fill:#000000;fill-opacity:1;fill-rule:evenodd;stroke:#000000;stroke-width:0.625;stroke-linejoin:round;stroke-opacity:1"
         id="path6275-1-5-8-27-1-8-5-9-9-5-1-9-6-8-6-0-8-8-7-7" />
    </marker>
    <marker
       style="overflow:visible"
       id="marker6277-1-8-7-9-2-8-0-4-9-9-2-2-4-7-6-6-5-39-6-0-9"
       refX="0"
       refY="0"
       orient="auto">
      <path
         transform="scale(-0.6)"
         d="M 8.7185878,4.0337352 -2.2072895,0.01601326 8.7185884,-4.0017078 c -1.7454984,2.3720609 -1.7354408,5.6174519 -6e-7,8.035443 z"
         style="fill:#000000;fill-opacity:1;fill-rule:evenodd;stroke:#000000;stroke-width:0.625;stroke-linejoin:round;stroke-opacity:1"
         id="path6275-1-5-8-27-1-8-5-9-9-5-1-9-6-8-6-0-8-8-7-7-0" />
    </marker>
    <marker
       style="overflow:visible"
       id="marker6277-1-8-7-9-2-8-0-4-9-9-2-2-4-7-6-6-5-39-6-0-9-7"
       refX="0"
       refY="0"
       orient="auto">
      <path
         transform="scale(-0.6)"
         d="M 8.7185878,4.0337352 -2.2072895,0.01601326 8.7185884,-4.0017078 c -1.7454984,2.3720609 -1.7354408,5.6174519 -6e-7,8.035443 z"
         style="fill:#000000;fill-opacity:1;fill-rule:evenodd;stroke:#000000;stroke-width:0.625;stroke-linejoin:round;stroke-opacity:1"
         id="path6275-1-5-8-27-1-8-5-9-9-5-1-9-6-8-6-0-8-8-7-7-0-5" />
    </marker>
    <marker
       style="overflow:visible"
       id="marker6277-1-8-7-9-2-8-0-4-9-9-2-2-4-7-6-6-5-39-6-1"
       refX="0"
       refY="0"
       orient="auto">
      <path
         transform="scale(-0.6)"
         d="M 8.7185878,4.0337352 -2.2072895,0.01601326 8.7185884,-4.0017078 c -1.7454984,2.3720609 -1.7354408,5.6174519 -6e-7,8.035443 z"
         style="fill:#000000;fill-opacity:1;fill-rule:evenodd;stroke:#000000;stroke-width:0.625;stroke-linejoin:round;stroke-opacity:1"
         id="path6275-1-5-8-27-1-8-5-9-9-5-1-9-6-8-6-0-8-8-7-5" />
    </marker>
    <marker
       style="overflow:visible"
       id="marker6277-1-8-7-9-2-8-0-4-9-9-2-2-4-7-6-6-5-39-6-0-5"
       refX="0"
       refY="0"
       orient="auto">
      <path
         transform="scale(-0.6)"
         d="M 8.7185878,4.0337352 -2.2072895,0.01601326 8.7185884,-4.0017078 c -1.7454984,2.3720609 -1.7354408,5.6174519 -6e-7,8.035443 z"
         style="fill:#000000;fill-opacity:1;fill-rule:evenodd;stroke:#000000;stroke-width:0.625;stroke-linejoin:round;stroke-opacity:1"
         id="path6275-1-5-8-27-1-8-5-9-9-5-1-9-6-8-6-0-8-8-7-7-1" />
    </marker>
    <marker
       style="overflow:visible"
       id="marker6277-1-8-7-9-2-8-0-4-9-9-2-2-4-7-6-6-5-39-6-4"
       refX="0"
       refY="0"
       orient="auto">
      <path
         transform="scale(-0.6)"
         d="M 8.7185878,4.0337352 -2.2072895,0.01601326 8.7185884,-4.0017078 c -1.7454984,2.3720609 -1.7354408,5.6174519 -6e-7,8.035443 z"
         style="fill:#000000;fill-opacity:1;fill-rule:evenodd;stroke:#000000;stroke-width:0.625;stroke-linejoin:round;stroke-opacity:1"
         id="path6275-1-5-8-27-1-8-5-9-9-5-1-9-6-8-6-0-8-8-7-78" />
    </marker>
    <marker
       style="overflow:visible"
       id="marker6277-1-8-7-9-2-8-0-4-9-9-2-2-4-7-6-6-5-39-6-4-8"
       refX="0"
       refY="0"
       orient="auto">
      <path
         transform="scale(-0.6)"
         d="M 8.7185878,4.0337352 -2.2072895,0.01601326 8.7185884,-4.0017078 c -1.7454984,2.3720609 -1.7354408,5.6174519 -6e-7,8.035443 z"
         style="fill:#000000;fill-opacity:1;fill-rule:evenodd;stroke:#000000;stroke-width:0.625;stroke-linejoin:round;stroke-opacity:1"
         id="path6275-1-5-8-27-1-8-5-9-9-5-1-9-6-8-6-0-8-8-7-78-4" />
    </marker>
    <marker
       style="overflow:visible"
       id="marker6277-1-8-7-9-2-8-0-4-9-9-2-2-4-9-9-1-9-0-6"
       refX="0"
       refY="0"
       orient="auto">
      <path
         transform="scale(-0.6)"
         d="M 8.7185878,4.0337352 -2.2072895,0.01601326 8.7185884,-4.0017078 c -1.7454984,2.3720609 -1.7354408,5.6174519 -6e-7,8.035443 z"
         style="fill:#4a1919;fill-opacity:1;fill-rule:evenodd;stroke:#4a1919;stroke-width:0.625;stroke-linejoin:round;stroke-opacity:1"
         id="path6275-1-5-8-27-1-8-5-9-9-5-1-9-6-0-1-2-7-3-1" />
    </marker>
    <marker
       style="overflow:visible"
       id="marker6277-1-8-7-9-2-8-0-4-9-9-2-2-4-9-9-1-9-0-7-1-9"
       refX="0"
       refY="0"
       orient="auto">
      <path
         transform="scale(-0.6)"
         d="M 8.7185878,4.0337352 -2.2072895,0.01601326 8.7185884,-4.0017078 c -1.7454984,2.3720609 -1.7354408,5.6174519 -6e-7,8.035443 z"
         style="fill:#4a1919;fill-opacity:1;fill-rule:evenodd;stroke:#4a1919;stroke-width:0.625;stroke-linejoin:round;stroke-opacity:1"
         id="path6275-1-5-8-27-1-8-5-9-9-5-1-9-6-0-1-2-7-3-5-1-4" />
    </marker>
    <marker
       style="overflow:visible"
       id="marker6277-1-8-7-9-2-8-0-4-9-9-2-2-4-7-6-6-5-39-6-0-9-8"
       refX="0"
       refY="0"
       orient="auto">
      <path
         transform="scale(-0.6)"
         d="M 8.7185878,4.0337352 -2.2072895,0.01601326 8.7185884,-4.0017078 c -1.7454984,2.3720609 -1.7354408,5.6174519 -6e-7,8.035443 z"
         style="fill:#000000;fill-opacity:1;fill-rule:evenodd;stroke:#000000;stroke-width:0.625;stroke-linejoin:round;stroke-opacity:1"
         id="path6275-1-5-8-27-1-8-5-9-9-5-1-9-6-8-6-0-8-8-7-7-0-0" />
    </marker>
    <marker
       style="overflow:visible"
       id="marker11889-3"
       refX="0"
       refY="0"
       orient="auto">
      <path
         transform="scale(-0.6)"
         d="M 8.7185878,4.0337352 -2.2072895,0.01601326 8.7185884,-4.0017078 c -1.7454984,2.3720609 -1.7354408,5.6174519 -6e-7,8.035443 z"
         style="fill:context-stroke;fill-rule:evenodd;stroke-width:0.625;stroke-linejoin:round"
         id="path11655-5" />
    </marker>
    <marker
       style="overflow:visible"
       id="marker11889-3-3"
       refX="0"
       refY="0"
       orient="auto">
      <path
         transform="scale(-0.6)"
         d="M 8.7185878,4.0337352 -2.2072895,0.01601326 8.7185884,-4.0017078 c -1.7454984,2.3720609 -1.7354408,5.6174519 -6e-7,8.035443 z"
         style="fill:context-stroke;fill-rule:evenodd;stroke-width:0.625;stroke-linejoin:round"
         id="path11655-5-6" />
    </marker>
    <filter
       style="color-interpolation-filters:sRGB"
       id="filter2698"
       x="-0.020250001"
       y="-0.040500002"
       width="1.0405"
       height="1.081">
      <feGaussianBlur
         stdDeviation="0.54"
         id="feGaussianBlur2700" />
    </filter>
  </defs>
  <g
     id="layer1">
    <g
       id="g2772-77-2"
       transform="matrix(0.83095496,-0.00570261,0.00570261,0.83095496,-286.76225,180.57323)"
       style="opacity:0.0752033;stroke-width:0.482026" />
    <g
       id="g2772-77-9-7"
       transform="matrix(0.83073445,-0.00570111,0.00570111,0.83073445,-664.13253,319.41621)"
       style="opacity:1;fill:url(#linearGradient13613);fill-opacity:1;stroke-width:0.482153" />
    <rect
       style="mix-blend-mode:normal;fill:#000000;fill-opacity:0.5;stroke:none;stroke-width:0.100469;stroke-linecap:round;stroke-linejoin:round;stroke-miterlimit:4;stroke-dasharray:none;stroke-opacity:1;paint-order:fill markers stroke;filter:url(#filter2698)"
       id="rect1083-3-0-9"
       width="64"
       height="32"
       x="1.0583333"
       y="1.0583333"
       ry="3.3229742"
       rx="11.2212"
       transform="matrix(1.3114215,0,0,1.3114215,2.9945605,2.6009648)" />
    <text
       xml:space="preserve"
       transform="scale(0.26458333)"
       id="text9266"
       style="font-style:italic;font-size:3.83967px;line-height:1.25;font-family:Calibri;-inkscape-font-specification:'Calibri, Italic';font-variant-ligatures:none;text-align:center;letter-spacing:0px;word-spacing:0px;writing-mode:lr-tb;white-space:pre;shape-inside:url(#rect9268)" />
    <text
       xml:space="preserve"
       transform="scale(0.26458333)"
       id="text142876"
       style="font-style:italic;font-size:3.83967px;line-height:1.25;font-family:Calibri;-inkscape-font-specification:'Calibri, Italic';font-variant-ligatures:none;text-align:center;letter-spacing:0px;word-spacing:0px;writing-mode:lr-tb;white-space:pre;shape-inside:url(#rect142878)" />
    <rect
       style="fill:#8ee8ce;fill-opacity:1;stroke:none;stroke-width:0.132392;stroke-linecap:round;stroke-linejoin:round;stroke-miterlimit:4;stroke-dasharray:none;stroke-opacity:1;paint-order:fill markers stroke"
       id="rect1083-3-0-2-2"
       width="83.931"
       height="41.641582"
       x="1.823535"
       y="1.429957"
       ry="4.3787885"
       rx="14.786532" />
    <g
       id="g59784-3-1"
       transform="matrix(1.3177318,0,0,1.3177318,-188.38805,-160.21007)"
       style="opacity:0.85">
      <g
         aria-label="HABITAT"
         transform="scale(0.91873715,1.0884506)"
         id="text891-8-2-2-6-4-4-6-4-4-4-71-4-8-8-4-7-4-3-0-4-4-4-7-9-3-0-8-3"
         style="font-size:14.6943px;line-height:1.25;font-family:'Arial Rounded MT Bold';-inkscape-font-specification:'Arial Rounded MT Bold, Normal';font-variant-ligatures:none;text-align:center;letter-spacing:0.079375px;word-spacing:0px;text-anchor:middle;stroke-width:0.201759">
        <path
           d="m 162.54822,116.82701 v 3.01348 h 4.59914 v -3.01348 q 0,-0.64575 0.287,-0.96862 0.29417,-0.32287 0.76772,-0.32287 0.48072,0 0.77489,0.32287 0.30135,0.3157 0.30135,0.96862 v 8.28707 q 0,0.65292 -0.30135,0.97579 -0.30135,0.32287 -0.77489,0.32287 -0.48072,0 -0.76772,-0.32287 -0.287,-0.33005 -0.287,-0.97579 v -3.53726 h -4.59914 v 3.53726 q 0,0.65292 -0.30135,0.97579 -0.30135,0.32287 -0.7749,0.32287 -0.48072,0 -0.76772,-0.32287 -0.28699,-0.33005 -0.28699,-0.97579 v -8.28707 q 0,-0.64575 0.27982,-0.96862 0.287,-0.32287 0.77489,-0.32287 0.48072,0 0.7749,0.32287 0.30135,0.3157 0.30135,0.96862 z"
           style="text-align:start;text-anchor:start"
           id="path8530" />
        <path
           d="m 178.37661,125.04233 -0.50225,-1.32019 h -4.27627 l -0.50225,1.34889 q -0.29417,0.78924 -0.50224,1.06906 -0.20808,0.27265 -0.68162,0.27265 -0.4018,0 -0.71032,-0.29417 -0.30853,-0.29417 -0.30853,-0.66727 0,-0.21525 0.0717,-0.44485 0.0718,-0.2296 0.23678,-0.63857 l 2.6906,-6.83055 q 0.1148,-0.29418 0.27265,-0.70315 0.16503,-0.41615 0.3444,-0.68879 0.18655,-0.27265 0.48072,-0.43768 0.30135,-0.17219 0.73902,-0.17219 0.44485,0 0.73902,0.17219 0.30135,0.16503 0.48072,0.4305 0.18655,0.26548 0.30853,0.574 0.12915,0.30135 0.32287,0.81077 l 2.74801,6.7875 q 0.32287,0.7749 0.32287,1.12647 0,0.36592 -0.30852,0.67444 -0.30135,0.30135 -0.73185,0.30135 -0.25112,0 -0.4305,-0.0933 -0.17937,-0.0861 -0.30134,-0.23678 -0.12198,-0.15784 -0.26548,-0.47354 -0.13632,-0.32288 -0.23677,-0.56682 z m -4.21887,-2.92021 h 3.14263 l -1.58567,-4.34084 z"
           style="text-align:start;text-anchor:start"
           id="path8532" />
        <path
           d="m 186.7861,126.23337 h -3.21438 q -0.69597,0 -0.99732,-0.30852 -0.29417,-0.3157 -0.29417,-0.99732 v -7.9068 q 0,-0.69597 0.30135,-0.99732 0.30852,-0.30852 0.99014,-0.30852 h 3.4081 q 0.75337,0 1.30585,0.0933 0.55247,0.0933 0.99014,0.35875 0.3731,0.22243 0.66009,0.56682 0.287,0.33723 0.43768,0.75337 0.15067,0.40897 0.15067,0.86817 0,1.57849 -1.57849,2.31034 2.07356,0.66009 2.07356,2.56863 0,0.88252 -0.45202,1.59284 -0.45202,0.70314 -1.21974,1.04037 -0.48072,0.20089 -1.10494,0.28699 -0.62422,0.0789 -1.45652,0.0789 z m -0.15785,-4.6709 h -2.21706 v 3.07088 H 186.7 q 2.15966,0 2.15966,-1.55696 0,-0.79642 -0.55964,-1.15517 -0.55965,-0.35875 -1.67177,-0.35875 z m -2.21706,-4.24757 v 2.71931 h 1.95159 q 0.79642,0 1.22692,-0.15067 0.43767,-0.15068 0.66727,-0.574 0.17937,-0.30135 0.17937,-0.67445 0,-0.79641 -0.56682,-1.05471 -0.56682,-0.26548 -1.72916,-0.26548 z"
           style="text-align:start;text-anchor:start"
           id="path8534" />
        <path
           d="m 193.02876,125.11408 v -8.28707 q 0,-0.64575 0.29417,-0.96862 0.29417,-0.32287 0.76055,-0.32287 0.48072,0 0.77489,0.32287 0.30135,0.3157 0.30135,0.96862 v 8.28707 q 0,0.65292 -0.30135,0.97579 -0.29417,0.32287 -0.77489,0.32287 -0.4592,0 -0.76055,-0.32287 -0.29417,-0.33005 -0.29417,-0.97579 z"
           style="text-align:start;text-anchor:start"
           id="path8536" />
        <path
           d="m 204.45173,117.47275 h -2.32468 v 7.64133 q 0,0.66009 -0.29418,0.98296 -0.29417,0.3157 -0.76054,0.3157 -0.47355,0 -0.77489,-0.32287 -0.29418,-0.32287 -0.29418,-0.97579 v -7.64133 h -2.32468 q -0.5453,0 -0.81077,-0.23677 -0.26547,-0.24395 -0.26547,-0.63857 0,-0.40897 0.27264,-0.64575 0.27983,-0.23677 0.8036,-0.23677 h 6.77315 q 0.55247,0 0.81795,0.24395 0.27264,0.24395 0.27264,0.63857 0,0.39462 -0.27264,0.63857 -0.27265,0.23677 -0.81795,0.23677 z"
           style="text-align:start;text-anchor:start"
           id="path8538" />
        <path
           d="m 212.68903,125.04233 -0.50225,-1.32019 h -4.27627 l -0.50225,1.34889 q -0.29417,0.78924 -0.50224,1.06906 -0.20808,0.27265 -0.68162,0.27265 -0.4018,0 -0.71032,-0.29417 -0.30853,-0.29417 -0.30853,-0.66727 0,-0.21525 0.0718,-0.44485 0.0718,-0.2296 0.23678,-0.63857 l 2.6906,-6.83055 q 0.1148,-0.29418 0.27265,-0.70315 0.16503,-0.41615 0.3444,-0.68879 0.18655,-0.27265 0.48072,-0.43768 0.30135,-0.17219 0.73902,-0.17219 0.44485,0 0.73902,0.17219 0.30135,0.16503 0.48072,0.4305 0.18655,0.26548 0.30853,0.574 0.12915,0.30135 0.32287,0.81077 l 2.74801,6.7875 q 0.32287,0.7749 0.32287,1.12647 0,0.36592 -0.30853,0.67444 -0.30134,0.30135 -0.73184,0.30135 -0.25112,0 -0.4305,-0.0933 -0.17937,-0.0861 -0.30135,-0.23678 -0.12197,-0.15784 -0.26547,-0.47354 -0.13632,-0.32288 -0.23677,-0.56682 z m -4.21887,-2.92021 h 3.14263 l -1.58567,-4.34084 z"
           style="text-align:start;text-anchor:start"
           id="path8540" />
        <path
           d="m 222.14606,117.47275 h -2.32468 v 7.64133 q 0,0.66009 -0.29417,0.98296 -0.29418,0.3157 -0.76055,0.3157 -0.47354,0 -0.77489,-0.32287 -0.29418,-0.32287 -0.29418,-0.97579 v -7.64133 h -2.32468 q -0.5453,0 -0.81077,-0.23677 -0.26547,-0.24395 -0.26547,-0.63857 0,-0.40897 0.27265,-0.64575 0.27982,-0.23677 0.80359,-0.23677 h 6.77315 q 0.55248,0 0.81795,0.24395 0.27265,0.24395 0.27265,0.63857 0,0.39462 -0.27265,0.63857 -0.27265,0.23677 -0.81795,0.23677 z"
           style="text-align:start;text-anchor:start"
           id="path8542" />
      </g>
      <g
         aria-label="Perspective and Perception"
         id="text11004-3-7-0-9-2-6-7"
         style="font-style:italic;font-size:4.23061px;line-height:1.45;font-family:Calibri;-inkscape-font-specification:'Calibri, Italic';font-variant-ligatures:none;text-align:center;letter-spacing:0px;word-spacing:0px;text-anchor:middle;stroke-width:0.264583">
        <path
           d="m 147.26858,145.01886 v -3.02836 h 1.14235 q 0.3016,0 0.46066,0.0289 0.2231,0.0372 0.3739,0.14254 0.15079,0.10329 0.24169,0.29127 0.093,0.18798 0.093,0.41314 0,0.38629 -0.24582,0.65484 -0.24582,0.26648 -0.88826,0.26648 h -0.77671 v 1.23117 z m 0.40076,-1.58854 h 0.78291 q 0.38835,0 0.55155,-0.14461 0.16319,-0.1446 0.16319,-0.40694 0,-0.19005 -0.0971,-0.32432 -0.095,-0.13634 -0.25202,-0.17972 -0.10122,-0.0269 -0.3739,-0.0269 h -0.77464 z"
           style="font-style:normal;font-family:Arial;-inkscape-font-specification:Arial;text-align:start;text-anchor:start"
           id="path8545" />
        <path
           d="m 151.54464,144.31238 0.38423,0.0475 q -0.0909,0.33672 -0.33672,0.52263 -0.24582,0.18592 -0.62798,0.18592 -0.48131,0 -0.76432,-0.2954 -0.28094,-0.29747 -0.28094,-0.83249 0,-0.55361 0.28507,-0.85934 0.28507,-0.30573 0.73953,-0.30573 0.44,0 0.71888,0.29953 0.27887,0.29953 0.27887,0.84282 0,0.0331 -0.002,0.0991 h -1.63605 q 0.0207,0.3615 0.20451,0.55362 0.18385,0.19211 0.45859,0.19211 0.2045,0 0.3491,-0.10742 0.14461,-0.10742 0.2293,-0.34291 z m -1.22084,-0.60113 h 1.22497 q -0.0248,-0.2768 -0.14047,-0.41521 -0.17765,-0.21483 -0.46065,-0.21483 -0.25615,0 -0.43174,0.17145 -0.17352,0.17146 -0.19211,0.45859 z"
           style="font-style:normal;font-family:Arial;-inkscape-font-specification:Arial;text-align:start;text-anchor:start"
           id="path8547" />
        <path
           d="m 152.39159,145.01886 v -2.1938 h 0.33465 v 0.33258 q 0.12807,-0.23343 0.23549,-0.30779 0.10948,-0.0744 0.23962,-0.0744 0.18799,0 0.38216,0.11981 l -0.12807,0.34498 q -0.13634,-0.0806 -0.27268,-0.0806 -0.12188,0 -0.21896,0.0744 -0.0971,0.0723 -0.13841,0.20244 -0.062,0.19831 -0.062,0.43381 v 1.14854 z"
           style="font-style:normal;font-family:Arial;-inkscape-font-specification:Arial;text-align:start;text-anchor:start"
           id="path8549" />
        <path
           d="m 153.65581,144.36402 0.3677,-0.0578 q 0.031,0.22104 0.17146,0.33878 0.14253,0.11775 0.39662,0.11775 0.25615,0 0.38009,-0.10329 0.12395,-0.10535 0.12395,-0.24582 0,-0.12601 -0.10949,-0.19831 -0.0764,-0.0496 -0.38009,-0.12601 -0.40902,-0.10328 -0.56808,-0.17765 -0.15699,-0.0764 -0.23962,-0.20864 -0.0806,-0.13427 -0.0806,-0.2954 0,-0.14666 0.0661,-0.27061 0.0682,-0.12601 0.18385,-0.20864 0.0868,-0.064 0.23549,-0.10741 0.1508,-0.0455 0.32226,-0.0455 0.25821,0 0.45239,0.0744 0.19624,0.0744 0.2892,0.20244 0.093,0.12601 0.12808,0.33878 l -0.36357,0.0496 q -0.0248,-0.16939 -0.1446,-0.26441 -0.11775,-0.095 -0.33465,-0.095 -0.25615,0 -0.36563,0.0847 -0.10949,0.0847 -0.10949,0.19831 0,0.0723 0.0454,0.13014 0.0454,0.0599 0.14253,0.0992 0.0558,0.0207 0.32845,0.095 0.39456,0.10535 0.54949,0.17352 0.15699,0.0661 0.24582,0.19418 0.0888,0.12808 0.0888,0.31812 0,0.18592 -0.10949,0.35118 -0.10742,0.16319 -0.31192,0.25408 -0.20451,0.0888 -0.46273,0.0888 -0.4276,0 -0.65277,-0.17766 -0.22309,-0.17765 -0.28507,-0.52676 z"
           style="font-style:normal;font-family:Arial;-inkscape-font-specification:Arial;text-align:start;text-anchor:start"
           id="path8551" />
        <path
           d="m 155.91985,145.85961 v -3.03455 h 0.33878 v 0.28507 q 0.11981,-0.16733 0.27061,-0.24996 0.1508,-0.0847 0.36563,-0.0847 0.28094,0 0.49578,0.1446 0.21483,0.1446 0.32432,0.40901 0.10948,0.26235 0.10948,0.57634 0,0.33672 -0.12188,0.60733 -0.11981,0.26854 -0.35117,0.41314 -0.2293,0.14254 -0.48338,0.14254 -0.18592,0 -0.33465,-0.0785 -0.14666,-0.0785 -0.24169,-0.19831 v 1.06798 z m 0.33671,-1.92526 q 0,0.42348 0.17146,0.62592 0.17146,0.20244 0.41521,0.20244 0.24789,0 0.42348,-0.20864 0.17765,-0.2107 0.17765,-0.6507 0,-0.41935 -0.17352,-0.62798 -0.17146,-0.20864 -0.41108,-0.20864 -0.23756,0 -0.42141,0.2231 -0.18179,0.22103 -0.18179,0.6445 z"
           style="font-style:normal;font-family:Arial;-inkscape-font-specification:Arial;text-align:start;text-anchor:start"
           id="path8553" />
        <path
           d="m 159.7745,144.31238 0.38422,0.0475 q -0.0909,0.33672 -0.33671,0.52263 -0.24582,0.18592 -0.62798,0.18592 -0.48132,0 -0.76432,-0.2954 -0.28094,-0.29747 -0.28094,-0.83249 0,-0.55361 0.28507,-0.85934 0.28507,-0.30573 0.73953,-0.30573 0.44,0 0.71887,0.29953 0.27888,0.29953 0.27888,0.84282 0,0.0331 -0.002,0.0991 H 158.533 q 0.0207,0.3615 0.2045,0.55362 0.18385,0.19211 0.45859,0.19211 0.20451,0 0.34911,-0.10742 0.1446,-0.10742 0.2293,-0.34291 z m -1.22085,-0.60113 h 1.22498 q -0.0248,-0.2768 -0.14047,-0.41521 -0.17765,-0.21483 -0.46066,-0.21483 -0.25615,0 -0.43173,0.17145 -0.17353,0.17146 -0.19212,0.45859 z"
           style="font-style:normal;font-family:Arial;-inkscape-font-specification:Arial;text-align:start;text-anchor:start"
           id="path8555" />
        <path
           d="m 162.05713,144.21529 0.36563,0.0475 q -0.0599,0.37803 -0.30779,0.59287 -0.24582,0.21277 -0.60526,0.21277 -0.45033,0 -0.72507,-0.29334 -0.27268,-0.2954 -0.27268,-0.84488 0,-0.3553 0.11775,-0.62178 0.11775,-0.26648 0.35737,-0.39869 0.24169,-0.13427 0.5247,-0.13427 0.35737,0 0.5846,0.18178 0.22723,0.17972 0.29126,0.5123 l -0.3615,0.0558 q -0.0516,-0.22103 -0.18385,-0.33258 -0.13014,-0.11155 -0.31605,-0.11155 -0.28094,0 -0.45653,0.20244 -0.17559,0.20037 -0.17559,0.63624 0,0.44207 0.16939,0.64244 0.16939,0.20038 0.44207,0.20038 0.21897,0 0.36563,-0.13427 0.14667,-0.13427 0.18592,-0.41315 z"
           style="font-style:normal;font-family:Arial;-inkscape-font-specification:Arial;text-align:start;text-anchor:start"
           id="path8557" />
        <path
           d="m 163.55271,144.68628 0.0537,0.32845 q -0.15699,0.0331 -0.28094,0.0331 -0.20244,0 -0.31399,-0.064 -0.11155,-0.064 -0.15699,-0.16732 -0.0454,-0.10535 -0.0454,-0.44 v -1.26216 h -0.27267 v -0.2892 h 0.27267 v -0.54329 l 0.36977,-0.2231 v 0.76639 h 0.37389 v 0.2892 h -0.37389 v 1.28282 q 0,0.15906 0.0186,0.2045 0.0207,0.0454 0.064,0.0723 0.0454,0.0269 0.12807,0.0269 0.062,0 0.16319,-0.0145 z"
           style="font-style:normal;font-family:Arial;-inkscape-font-specification:Arial;text-align:start;text-anchor:start"
           id="path8559" />
        <path
           d="m 163.91835,142.41811 v -0.42761 h 0.37183 v 0.42761 z m 0,2.60075 v -2.1938 h 0.37183 v 2.1938 z"
           style="font-style:normal;font-family:Arial;-inkscape-font-specification:Arial;text-align:start;text-anchor:start"
           id="path8561" />
        <path
           d="m 165.46558,145.01886 -0.83456,-2.1938 h 0.39249 l 0.47099,1.3138 q 0.0764,0.21277 0.14047,0.44207 0.0496,-0.17353 0.1384,-0.41728 l 0.48751,-1.33859 h 0.38216 l -0.83042,2.1938 z"
           style="font-style:normal;font-family:Arial;-inkscape-font-specification:Arial;text-align:start;text-anchor:start"
           id="path8563" />
        <path
           d="m 168.47328,144.31238 0.38422,0.0475 q -0.0909,0.33672 -0.33671,0.52263 -0.24582,0.18592 -0.62798,0.18592 -0.48132,0 -0.76432,-0.2954 -0.28094,-0.29747 -0.28094,-0.83249 0,-0.55361 0.28507,-0.85934 0.28507,-0.30573 0.73953,-0.30573 0.44,0 0.71887,0.29953 0.27888,0.29953 0.27888,0.84282 0,0.0331 -0.002,0.0991 h -1.63606 q 0.0207,0.3615 0.20451,0.55362 0.18385,0.19211 0.45859,0.19211 0.20451,0 0.34911,-0.10742 0.1446,-0.10742 0.2293,-0.34291 z m -1.22085,-0.60113 h 1.22498 q -0.0248,-0.2768 -0.14047,-0.41521 -0.17765,-0.21483 -0.46066,-0.21483 -0.25615,0 -0.43174,0.17145 -0.17352,0.17146 -0.19211,0.45859 z"
           style="font-style:normal;font-family:Arial;-inkscape-font-specification:Arial;text-align:start;text-anchor:start"
           id="path8565" />
        <path
           d="m 171.9313,144.74825 q -0.20657,0.17559 -0.39868,0.24789 -0.19005,0.0723 -0.40901,0.0723 -0.36151,0 -0.55569,-0.17559 -0.19417,-0.17765 -0.19417,-0.45239 0,-0.16113 0.0723,-0.29334 0.0744,-0.13427 0.19211,-0.21483 0.11981,-0.0806 0.26854,-0.12188 0.10949,-0.0289 0.33052,-0.0558 0.45033,-0.0537 0.6631,-0.12807 0.002,-0.0764 0.002,-0.0971 0,-0.22723 -0.10535,-0.32019 -0.14253,-0.12601 -0.42347,-0.12601 -0.26235,0 -0.38836,0.093 -0.12394,0.0909 -0.18385,0.32432 l -0.36357,-0.0496 q 0.0496,-0.23342 0.1632,-0.37596 0.11361,-0.1446 0.32845,-0.22103 0.21483,-0.0785 0.49784,-0.0785 0.28094,0 0.45652,0.0661 0.17559,0.0661 0.25822,0.16733 0.0826,0.0992 0.11568,0.25202 0.0186,0.095 0.0186,0.34291 v 0.49577 q 0,0.5185 0.0227,0.6569 0.0248,0.13634 0.095,0.26235 h -0.38836 q -0.0578,-0.11568 -0.0744,-0.27061 z m -0.031,-0.83042 q -0.20244,0.0826 -0.60733,0.14047 -0.22929,0.0331 -0.32431,0.0744 -0.095,0.0413 -0.14667,0.12188 -0.0516,0.0785 -0.0516,0.17559 0,0.14873 0.11155,0.24788 0.11361,0.0992 0.33051,0.0992 0.21484,0 0.38216,-0.093 0.16733,-0.095 0.24582,-0.25821 0.0599,-0.12601 0.0599,-0.37183 z"
           style="font-style:normal;font-family:Arial;-inkscape-font-specification:Arial;text-align:start;text-anchor:start"
           id="path8567" />
        <path
           d="m 172.85262,145.01886 v -2.1938 h 0.33465 v 0.31192 q 0.24169,-0.3615 0.69821,-0.3615 0.19831,0 0.36357,0.0723 0.16732,0.0702 0.24995,0.18592 0.0826,0.11568 0.11568,0.27474 0.0207,0.10328 0.0207,0.3615 v 1.34892 h -0.37183 v -1.33446 q 0,-0.22723 -0.0434,-0.33878 -0.0434,-0.11361 -0.15493,-0.17972 -0.10948,-0.0682 -0.25821,-0.0682 -0.23756,0 -0.41108,0.1508 -0.17146,0.1508 -0.17146,0.57221 v 1.19812 z"
           style="font-style:normal;font-family:Arial;-inkscape-font-specification:Arial;text-align:start;text-anchor:start"
           id="path8569" />
        <path
           d="m 176.62877,145.01886 v -0.27681 q -0.20864,0.32639 -0.61352,0.32639 -0.26235,0 -0.48338,-0.1446 -0.21897,-0.1446 -0.34085,-0.40282 -0.11981,-0.26028 -0.11981,-0.597 0,-0.32845 0.10948,-0.59493 0.10949,-0.26854 0.32845,-0.41107 0.21897,-0.14254 0.48958,-0.14254 0.19831,0 0.35324,0.0847 0.15493,0.0826 0.25202,0.21691 v -1.08658 h 0.36976 v 3.02836 z m -1.1754,-1.09484 q 0,0.42141 0.17765,0.63005 0.17765,0.20864 0.41934,0.20864 0.24376,0 0.41315,-0.19831 0.17146,-0.20038 0.17146,-0.60939 0,-0.45033 -0.17353,-0.66103 -0.17352,-0.21071 -0.4276,-0.21071 -0.24789,0 -0.41521,0.20244 -0.16526,0.20245 -0.16526,0.63831 z"
           style="font-style:normal;font-family:Arial;-inkscape-font-specification:Arial;text-align:start;text-anchor:start"
           id="path8571" />
        <path
           d="m 178.78126,145.01886 v -3.02836 h 1.14234 q 0.3016,0 0.46066,0.0289 0.2231,0.0372 0.3739,0.14254 0.1508,0.10329 0.24169,0.29127 0.093,0.18798 0.093,0.41314 0,0.38629 -0.24583,0.65484 -0.24582,0.26648 -0.88826,0.26648 h -0.77671 v 1.23117 z m 0.40075,-1.58854 h 0.78291 q 0.38836,0 0.55155,-0.14461 0.16319,-0.1446 0.16319,-0.40694 0,-0.19005 -0.0971,-0.32432 -0.095,-0.13634 -0.25202,-0.17972 -0.10122,-0.0269 -0.37389,-0.0269 h -0.77465 z"
           style="font-style:normal;font-family:Arial;-inkscape-font-specification:Arial;text-align:start;text-anchor:start"
           id="path8573" />
        <path
           d="m 183.05731,144.31238 0.38423,0.0475 q -0.0909,0.33672 -0.33671,0.52263 -0.24583,0.18592 -0.62799,0.18592 -0.48131,0 -0.76431,-0.2954 -0.28094,-0.29747 -0.28094,-0.83249 0,-0.55361 0.28507,-0.85934 0.28507,-0.30573 0.73953,-0.30573 0.44,0 0.71887,0.29953 0.27887,0.29953 0.27887,0.84282 0,0.0331 -0.002,0.0991 h -1.63606 q 0.0207,0.3615 0.20451,0.55362 0.18385,0.19211 0.45859,0.19211 0.20451,0 0.34911,-0.10742 0.1446,-0.10742 0.22929,-0.34291 z m -1.22084,-0.60113 h 1.22498 q -0.0248,-0.2768 -0.14047,-0.41521 -0.17766,-0.21483 -0.46066,-0.21483 -0.25615,0 -0.43174,0.17145 -0.17352,0.17146 -0.19211,0.45859 z"
           style="font-style:normal;font-family:Arial;-inkscape-font-specification:Arial;text-align:start;text-anchor:start"
           id="path8575" />
        <path
           d="m 183.90426,145.01886 v -2.1938 h 0.33465 v 0.33258 q 0.12808,-0.23343 0.23549,-0.30779 0.10949,-0.0744 0.23963,-0.0744 0.18798,0 0.38216,0.11981 l -0.12808,0.34498 q -0.13634,-0.0806 -0.27267,-0.0806 -0.12188,0 -0.21897,0.0744 -0.0971,0.0723 -0.13841,0.20244 -0.062,0.19831 -0.062,0.43381 v 1.14854 z"
           style="font-style:normal;font-family:Arial;-inkscape-font-specification:Arial;text-align:start;text-anchor:start"
           id="path8577" />
        <path
           d="m 186.74877,144.21529 0.36563,0.0475 q -0.0599,0.37803 -0.30779,0.59287 -0.24582,0.21277 -0.60526,0.21277 -0.45033,0 -0.72507,-0.29334 -0.27268,-0.2954 -0.27268,-0.84488 0,-0.3553 0.11775,-0.62178 0.11775,-0.26648 0.35737,-0.39869 0.24169,-0.13427 0.5247,-0.13427 0.35737,0 0.5846,0.18178 0.22723,0.17972 0.29126,0.5123 l -0.3615,0.0558 q -0.0516,-0.22103 -0.18385,-0.33258 -0.13014,-0.11155 -0.31605,-0.11155 -0.28094,0 -0.45653,0.20244 -0.17559,0.20037 -0.17559,0.63624 0,0.44207 0.16939,0.64244 0.16939,0.20038 0.44207,0.20038 0.21897,0 0.36563,-0.13427 0.14667,-0.13427 0.18592,-0.41315 z"
           style="font-style:normal;font-family:Arial;-inkscape-font-specification:Arial;text-align:start;text-anchor:start"
           id="path8579" />
        <path
           d="m 188.93431,144.31238 0.38422,0.0475 q -0.0909,0.33672 -0.33671,0.52263 -0.24582,0.18592 -0.62798,0.18592 -0.48131,0 -0.76432,-0.2954 -0.28094,-0.29747 -0.28094,-0.83249 0,-0.55361 0.28507,-0.85934 0.28507,-0.30573 0.73953,-0.30573 0.44,0 0.71888,0.29953 0.27887,0.29953 0.27887,0.84282 0,0.0331 -0.002,0.0991 h -1.63605 q 0.0206,0.3615 0.2045,0.55362 0.18385,0.19211 0.4586,0.19211 0.2045,0 0.3491,-0.10742 0.1446,-0.10742 0.2293,-0.34291 z m -1.22085,-0.60113 h 1.22498 q -0.0248,-0.2768 -0.14047,-0.41521 -0.17765,-0.21483 -0.46066,-0.21483 -0.25615,0 -0.43173,0.17145 -0.17352,0.17146 -0.19212,0.45859 z"
           style="font-style:normal;font-family:Arial;-inkscape-font-specification:Arial;text-align:start;text-anchor:start"
           id="path8581" />
        <path
           d="m 189.78539,145.85961 v -3.03455 h 0.33878 v 0.28507 q 0.11981,-0.16733 0.27061,-0.24996 0.1508,-0.0847 0.36563,-0.0847 0.28094,0 0.49578,0.1446 0.21483,0.1446 0.32432,0.40901 0.10948,0.26235 0.10948,0.57634 0,0.33672 -0.12188,0.60733 -0.11981,0.26854 -0.35117,0.41314 -0.2293,0.14254 -0.48338,0.14254 -0.18592,0 -0.33465,-0.0785 -0.14667,-0.0785 -0.24169,-0.19831 v 1.06798 z m 0.33671,-1.92526 q 0,0.42348 0.17146,0.62592 0.17145,0.20244 0.41521,0.20244 0.24789,0 0.42347,-0.20864 0.17766,-0.2107 0.17766,-0.6507 0,-0.41935 -0.17353,-0.62798 -0.17145,-0.20864 -0.41108,-0.20864 -0.23755,0 -0.4214,0.2231 -0.18179,0.22103 -0.18179,0.6445 z"
           style="font-style:normal;font-family:Arial;-inkscape-font-specification:Arial;text-align:start;text-anchor:start"
           id="path8583" />
        <path
           d="m 192.95008,144.68628 0.0537,0.32845 q -0.15699,0.0331 -0.28094,0.0331 -0.20244,0 -0.31399,-0.064 -0.11155,-0.064 -0.15699,-0.16732 -0.0454,-0.10535 -0.0454,-0.44 v -1.26216 h -0.27267 v -0.2892 h 0.27267 v -0.54329 l 0.36977,-0.2231 v 0.76639 h 0.37389 v 0.2892 h -0.37389 v 1.28282 q 0,0.15906 0.0186,0.2045 0.0207,0.0454 0.064,0.0723 0.0454,0.0269 0.12807,0.0269 0.062,0 0.16319,-0.0145 z"
           style="font-style:normal;font-family:Arial;-inkscape-font-specification:Arial;text-align:start;text-anchor:start"
           id="path8585" />
        <path
           d="m 193.31571,142.41811 v -0.42761 h 0.37183 v 0.42761 z m 0,2.60075 v -2.1938 h 0.37183 v 2.1938 z"
           style="font-style:normal;font-family:Arial;-inkscape-font-specification:Arial;text-align:start;text-anchor:start"
           id="path8587" />
        <path
           d="m 194.11515,143.92196 q 0,-0.60939 0.33878,-0.90272 0.28301,-0.24376 0.68995,-0.24376 0.4524,0 0.73953,0.29746 0.28714,0.2954 0.28714,0.81803 0,0.42348 -0.12807,0.66723 -0.12601,0.24169 -0.36977,0.37597 -0.24169,0.13427 -0.52883,0.13427 -0.46065,0 -0.74572,-0.2954 -0.28301,-0.2954 -0.28301,-0.85108 z m 0.38216,0 q 0,0.42141 0.18385,0.63211 0.18385,0.20864 0.46272,0.20864 0.27681,0 0.46066,-0.2107 0.18385,-0.21071 0.18385,-0.64245 0,-0.40694 -0.18591,-0.61558 -0.18385,-0.21071 -0.4586,-0.21071 -0.27887,0 -0.46272,0.20864 -0.18385,0.20864 -0.18385,0.63005 z"
           style="font-style:normal;font-family:Arial;-inkscape-font-specification:Arial;text-align:start;text-anchor:start"
           id="path8589" />
        <path
           d="m 196.60642,145.01886 v -2.1938 h 0.33465 v 0.31192 q 0.24169,-0.3615 0.69821,-0.3615 0.19831,0 0.36357,0.0723 0.16732,0.0702 0.24995,0.18592 0.0826,0.11568 0.11568,0.27474 0.0207,0.10328 0.0207,0.3615 v 1.34892 h -0.37183 v -1.33446 q 0,-0.22723 -0.0434,-0.33878 -0.0434,-0.11361 -0.15493,-0.17972 -0.10948,-0.0682 -0.25822,-0.0682 -0.23755,0 -0.41108,0.1508 -0.17145,0.1508 -0.17145,0.57221 v 1.19812 z"
           style="font-style:normal;font-family:Arial;-inkscape-font-specification:Arial;text-align:start;text-anchor:start"
           id="path8591" />
      </g>
    </g>
  </g>
</svg>
