<?xml version="1.0" encoding="UTF-8" standalone="no"?>
<!-- Created with Inkscape (http://www.inkscape.org/) -->

<svg
   width="90mm"
   height="48mm"
   viewBox="0 0 90.000002 48.000001"
   version="1.1"
   id="svg5"
   xmlns:xlink="http://www.w3.org/1999/xlink"
   xmlns="http://www.w3.org/2000/svg"
   xmlns:svg="http://www.w3.org/2000/svg">
  <defs
     id="defs2">
    <rect
       x="-3.928764"
       y="-42.779875"
       width="376.05706"
       height="48.934619"
       id="rect3029" />
    <rect
       x="2832"
       y="1194"
       width="8"
       height="4"
       id="rect142878" />
    <rect
       x="335.38434"
       y="181.07834"
       width="18.984018"
       height="5.8412366"
       id="rect9268" />
    <marker
       style="overflow:visible"
       id="marker11889"
       refX="0"
       refY="0"
       orient="auto">
      <path
         transform="scale(-0.6)"
         d="M 8.7185878,4.0337352 -2.2072895,0.01601326 8.7185884,-4.0017078 c -1.7454984,2.3720609 -1.7354408,5.6174519 -6e-7,8.035443 z"
         style="fill:context-stroke;fill-rule:evenodd;stroke-width:0.625;stroke-linejoin:round"
         id="path11655" />
    </marker>
    <marker
       id="ExperimentalArrow"
       refX="5"
       refY="3"
       orient="auto-start-reverse">
      <path
         style="fill:context-stroke"
         d="M 10,3 0,6 V 0 Z"
         id="path237637" />
    </marker>
    <marker
       style="overflow:visible"
       id="Tail"
       refX="0"
       refY="0"
       orient="auto">
      <g
         transform="scale(-1.2)"
         id="g237432">
        <path
           style="fill:none;fill-rule:evenodd;stroke:context-stroke;stroke-width:0.8;stroke-linecap:round"
           d="M -3.8048674,-3.9585227 0.54352094,0"
           id="path237420" />
        <path
           style="fill:none;fill-rule:evenodd;stroke:context-stroke;stroke-width:0.8;stroke-linecap:round"
           d="M -1.2866832,-3.9585227 3.0617053,0"
           id="path237422" />
        <path
           style="fill:none;fill-rule:evenodd;stroke:context-stroke;stroke-width:0.8;stroke-linecap:round"
           d="M 1.3053582,-3.9585227 5.6537466,0"
           id="path237424" />
        <path
           style="fill:none;fill-rule:evenodd;stroke:context-stroke;stroke-width:0.8;stroke-linecap:round"
           d="M -3.8048674,4.1775838 0.54352094,0.21974226"
           id="path237426" />
        <path
           style="fill:none;fill-rule:evenodd;stroke:context-stroke;stroke-width:0.8;stroke-linecap:round"
           d="M -1.2866832,4.1775838 3.0617053,0.21974226"
           id="path237428" />
        <path
           style="fill:none;fill-rule:evenodd;stroke:context-stroke;stroke-width:0.8;stroke-linecap:round"
           d="M 1.3053582,4.1775838 5.6537466,0.21974226"
           id="path237430" />
      </g>
    </marker>
    <marker
       style="overflow:visible"
       id="marker238432"
       refX="0"
       refY="0"
       orient="auto">
      <path
         transform="scale(-0.6)"
         d="M 8.7185878,4.0337352 -2.2072895,0.01601326 8.7185884,-4.0017078 c -1.7454984,2.3720609 -1.7354408,5.6174519 -6e-7,8.035443 z"
         style="fill:context-stroke;fill-rule:evenodd;stroke-width:0.625;stroke-linejoin:round"
         id="path238430" />
    </marker>
    <marker
       style="overflow:visible"
       id="marker238083"
       refX="0"
       refY="0"
       orient="auto">
      <path
         transform="scale(-0.6)"
         d="M 8.7185878,4.0337352 -2.2072895,0.01601326 8.7185884,-4.0017078 c -1.7454984,2.3720609 -1.7354408,5.6174519 -6e-7,8.035443 z"
         style="fill:context-stroke;fill-rule:evenodd;stroke-width:0.625;stroke-linejoin:round"
         id="path238081" />
    </marker>
    <marker
       style="overflow:visible"
       id="Arrow2Mend"
       refX="0"
       refY="0"
       orient="auto">
      <path
         transform="scale(-0.6)"
         d="M 8.7185878,4.0337352 -2.2072895,0.01601326 8.7185884,-4.0017078 c -1.7454984,2.3720609 -1.7354408,5.6174519 -6e-7,8.035443 z"
         style="fill:context-stroke;fill-rule:evenodd;stroke-width:0.625;stroke-linejoin:round"
         id="path237411" />
    </marker>
    <linearGradient
       id="linearGradient12387">
      <stop
         style="stop-color:#000000;stop-opacity:1;"
         offset="0"
         id="stop12383" />
      <stop
         style="stop-color:#000000;stop-opacity:0;"
         offset="1"
         id="stop12385" />
    </linearGradient>
    <filter
       style="color-interpolation-filters:sRGB"
       id="filter97634"
       x="0"
       y="0"
       width="1"
       height="1">
      <feColorMatrix
         values="-1 0 0 0 1 0 -1 0 0 1 0 0 -1 0 1 0.21 0.72 0.07 1 0 "
         result="color2"
         id="feColorMatrix97632" />
    </filter>
    <filter
       style="color-interpolation-filters:sRGB"
       id="filter97634-0"
       x="0"
       y="0"
       width="1"
       height="1">
      <feColorMatrix
         values="-1 0 0 0 1 0 -1 0 0 1 0 0 -1 0 1 0.21 0.72 0.07 1 0 "
         result="color2"
         id="feColorMatrix97632-9" />
    </filter>
    <filter
       style="color-interpolation-filters:sRGB"
       id="filter97634-7"
       x="0"
       y="0"
       width="1"
       height="1">
      <feColorMatrix
         values="-1 0 0 0 1 0 -1 0 0 1 0 0 -1 0 1 0.21 0.72 0.07 1 0 "
         result="color2"
         id="feColorMatrix97632-5" />
    </filter>
    <marker
       style="overflow:visible"
       id="marker6277-1-8-7-9-2-8-0-4-9-9-2-2-4-9-9"
       refX="0"
       refY="0"
       orient="auto">
      <path
         transform="scale(-0.6)"
         d="M 8.7185878,4.0337352 -2.2072895,0.01601326 8.7185884,-4.0017078 c -1.7454984,2.3720609 -1.7354408,5.6174519 -6e-7,8.035443 z"
         style="fill:#4a1919;fill-opacity:1;fill-rule:evenodd;stroke:#4a1919;stroke-width:0.625;stroke-linejoin:round;stroke-opacity:1"
         id="path6275-1-5-8-27-1-8-5-9-9-5-1-9-6-0-1" />
    </marker>
    <marker
       style="overflow:visible"
       id="marker6277-1-8-7-9-2-8-0-4-9-9-2-2-4-9-9-0"
       refX="0"
       refY="0"
       orient="auto">
      <path
         transform="scale(-0.6)"
         d="M 8.7185878,4.0337352 -2.2072895,0.01601326 8.7185884,-4.0017078 c -1.7454984,2.3720609 -1.7354408,5.6174519 -6e-7,8.035443 z"
         style="fill:#4a1919;fill-opacity:1;fill-rule:evenodd;stroke:#4a1919;stroke-width:0.625;stroke-linejoin:round;stroke-opacity:1"
         id="path6275-1-5-8-27-1-8-5-9-9-5-1-9-6-0-1-8" />
    </marker>
    <marker
       style="overflow:visible"
       id="marker6277-1-8-7-9-2-8-0-4-9-9-2-2-4-9-9-3"
       refX="0"
       refY="0"
       orient="auto">
      <path
         transform="scale(-0.6)"
         d="M 8.7185878,4.0337352 -2.2072895,0.01601326 8.7185884,-4.0017078 c -1.7454984,2.3720609 -1.7354408,5.6174519 -6e-7,8.035443 z"
         style="fill:#4a1919;fill-opacity:1;fill-rule:evenodd;stroke:#4a1919;stroke-width:0.625;stroke-linejoin:round;stroke-opacity:1"
         id="path6275-1-5-8-27-1-8-5-9-9-5-1-9-6-0-1-0" />
    </marker>
    <marker
       style="overflow:visible"
       id="marker6277-1-8-7-9-2-8-0-4-9-9-2-2-4-9-9-7"
       refX="0"
       refY="0"
       orient="auto">
      <path
         transform="scale(-0.6)"
         d="M 8.7185878,4.0337352 -2.2072895,0.01601326 8.7185884,-4.0017078 c -1.7454984,2.3720609 -1.7354408,5.6174519 -6e-7,8.035443 z"
         style="fill:#4a1919;fill-opacity:1;fill-rule:evenodd;stroke:#4a1919;stroke-width:0.625;stroke-linejoin:round;stroke-opacity:1"
         id="path6275-1-5-8-27-1-8-5-9-9-5-1-9-6-0-1-5" />
    </marker>
    <filter
       style="color-interpolation-filters:sRGB"
       id="filter97634-9"
       x="0"
       y="0"
       width="1"
       height="1">
      <feColorMatrix
         values="-1 0 0 0 1 0 -1 0 0 1 0 0 -1 0 1 0.21 0.72 0.07 1 0 "
         result="color2"
         id="feColorMatrix97632-2" />
    </filter>
    <marker
       style="overflow:visible"
       id="marker6277-1-8-7-9-2-8-0-4-9-9-2-2-4-9-9-7-7"
       refX="0"
       refY="0"
       orient="auto">
      <path
         transform="scale(-0.6)"
         d="M 8.7185878,4.0337352 -2.2072895,0.01601326 8.7185884,-4.0017078 c -1.7454984,2.3720609 -1.7354408,5.6174519 -6e-7,8.035443 z"
         style="fill:#4a1919;fill-opacity:1;fill-rule:evenodd;stroke:#4a1919;stroke-width:0.625;stroke-linejoin:round;stroke-opacity:1"
         id="path6275-1-5-8-27-1-8-5-9-9-5-1-9-6-0-1-5-1" />
    </marker>
    <filter
       style="color-interpolation-filters:sRGB"
       id="filter97634-9-8"
       x="0"
       y="0"
       width="1"
       height="1">
      <feColorMatrix
         values="-1 0 0 0 1 0 -1 0 0 1 0 0 -1 0 1 0.21 0.72 0.07 1 0 "
         result="color2"
         id="feColorMatrix97632-2-5" />
    </filter>
    <linearGradient
       xlink:href="#linearGradient12387"
       id="linearGradient13613"
       gradientUnits="userSpaceOnUse"
       x1="350.61414"
       y1="-25.883547"
       x2="661.80835"
       y2="-25.883547" />
    <filter
       style="color-interpolation-filters:sRGB"
       id="filter13765"
       x="0"
       y="0"
       width="1"
       height="1">
      <feComposite
         in2="SourceGraphic"
         operator="arithmetic"
         k4="1"
         result="result1"
         id="feComposite13757"
         k1="0"
         k2="0"
         k3="0" />
      <feMerge
         id="feMerge13763">
        <feMergeNode
           in="result1"
           id="feMergeNode13759" />
        <feMergeNode
           in="SourceGraphic"
           id="feMergeNode13761" />
      </feMerge>
    </filter>
    <marker
       style="overflow:visible"
       id="marker6277-1-8-7-9-2-8-0-4-9-9-2-2-4-9-9-1"
       refX="0"
       refY="0"
       orient="auto">
      <path
         transform="scale(-0.6)"
         d="M 8.7185878,4.0337352 -2.2072895,0.01601326 8.7185884,-4.0017078 c -1.7454984,2.3720609 -1.7354408,5.6174519 -6e-7,8.035443 z"
         style="fill:#4a1919;fill-opacity:1;fill-rule:evenodd;stroke:#4a1919;stroke-width:0.625;stroke-linejoin:round;stroke-opacity:1"
         id="path6275-1-5-8-27-1-8-5-9-9-5-1-9-6-0-1-2" />
    </marker>
    <marker
       style="overflow:visible"
       id="marker6277-1-8-7-9-2-8-0-4-9-9-2-2-4-9-9-1-9"
       refX="0"
       refY="0"
       orient="auto">
      <path
         transform="scale(-0.6)"
         d="M 8.7185878,4.0337352 -2.2072895,0.01601326 8.7185884,-4.0017078 c -1.7454984,2.3720609 -1.7354408,5.6174519 -6e-7,8.035443 z"
         style="fill:#4a1919;fill-opacity:1;fill-rule:evenodd;stroke:#4a1919;stroke-width:0.625;stroke-linejoin:round;stroke-opacity:1"
         id="path6275-1-5-8-27-1-8-5-9-9-5-1-9-6-0-1-2-7" />
    </marker>
    <marker
       style="overflow:visible"
       id="marker6277-1-8-7-9-2-8-0-4-9-9-2-2-4-9-9-1-5"
       refX="0"
       refY="0"
       orient="auto">
      <path
         transform="scale(-0.6)"
         d="M 8.7185878,4.0337352 -2.2072895,0.01601326 8.7185884,-4.0017078 c -1.7454984,2.3720609 -1.7354408,5.6174519 -6e-7,8.035443 z"
         style="fill:#4a1919;fill-opacity:1;fill-rule:evenodd;stroke:#4a1919;stroke-width:0.625;stroke-linejoin:round;stroke-opacity:1"
         id="path6275-1-5-8-27-1-8-5-9-9-5-1-9-6-0-1-2-3" />
    </marker>
    <marker
       style="overflow:visible"
       id="marker6277-1-8-7-9-2-8-0-4-9-9-2-2-4-9-9-1-6"
       refX="0"
       refY="0"
       orient="auto">
      <path
         transform="scale(-0.6)"
         d="M 8.7185878,4.0337352 -2.2072895,0.01601326 8.7185884,-4.0017078 c -1.7454984,2.3720609 -1.7354408,5.6174519 -6e-7,8.035443 z"
         style="fill:#4a1919;fill-opacity:1;fill-rule:evenodd;stroke:#4a1919;stroke-width:0.625;stroke-linejoin:round;stroke-opacity:1"
         id="path6275-1-5-8-27-1-8-5-9-9-5-1-9-6-0-1-2-2" />
    </marker>
    <marker
       style="overflow:visible"
       id="marker6277-1-8-7-9-2-8-0-4-9-9-2-2-4-9-9-1-6-3"
       refX="0"
       refY="0"
       orient="auto">
      <path
         transform="scale(-0.6)"
         d="M 8.7185878,4.0337352 -2.2072895,0.01601326 8.7185884,-4.0017078 c -1.7454984,2.3720609 -1.7354408,5.6174519 -6e-7,8.035443 z"
         style="fill:#4a1919;fill-opacity:1;fill-rule:evenodd;stroke:#4a1919;stroke-width:0.625;stroke-linejoin:round;stroke-opacity:1"
         id="path6275-1-5-8-27-1-8-5-9-9-5-1-9-6-0-1-2-2-8" />
    </marker>
    <marker
       style="overflow:visible"
       id="marker6277-1-8-7-9-2-8-0-4-9-9-2-2-4-7-6-6-5-39"
       refX="0"
       refY="0"
       orient="auto">
      <path
         transform="scale(-0.6)"
         d="M 8.7185878,4.0337352 -2.2072895,0.01601326 8.7185884,-4.0017078 c -1.7454984,2.3720609 -1.7354408,5.6174519 -6e-7,8.035443 z"
         style="fill:#000000;fill-opacity:1;fill-rule:evenodd;stroke:#000000;stroke-width:0.625;stroke-linejoin:round;stroke-opacity:1"
         id="path6275-1-5-8-27-1-8-5-9-9-5-1-9-6-8-6-0-8-8" />
    </marker>
    <marker
       style="overflow:visible"
       id="marker6277-1-8-7-9-2-8-0-4-9-9-2-2-4-9-9-1-5-5"
       refX="0"
       refY="0"
       orient="auto">
      <path
         transform="scale(-0.6)"
         d="M 8.7185878,4.0337352 -2.2072895,0.01601326 8.7185884,-4.0017078 c -1.7454984,2.3720609 -1.7354408,5.6174519 -6e-7,8.035443 z"
         style="fill:#4a1919;fill-opacity:1;fill-rule:evenodd;stroke:#4a1919;stroke-width:0.625;stroke-linejoin:round;stroke-opacity:1"
         id="path6275-1-5-8-27-1-8-5-9-9-5-1-9-6-0-1-2-3-7" />
    </marker>
    <marker
       style="overflow:visible"
       id="marker6277-1-8-7-9-2-8-0-4-9-9-2-2-4-9-9-1-9-0"
       refX="0"
       refY="0"
       orient="auto">
      <path
         transform="scale(-0.6)"
         d="M 8.7185878,4.0337352 -2.2072895,0.01601326 8.7185884,-4.0017078 c -1.7454984,2.3720609 -1.7354408,5.6174519 -6e-7,8.035443 z"
         style="fill:#4a1919;fill-opacity:1;fill-rule:evenodd;stroke:#4a1919;stroke-width:0.625;stroke-linejoin:round;stroke-opacity:1"
         id="path6275-1-5-8-27-1-8-5-9-9-5-1-9-6-0-1-2-7-3" />
    </marker>
    <marker
       style="overflow:visible"
       id="marker6277-1-8-7-9-2-8-0-4-9-9-2-2-4-9-9-1-9-0-7"
       refX="0"
       refY="0"
       orient="auto">
      <path
         transform="scale(-0.6)"
         d="M 8.7185878,4.0337352 -2.2072895,0.01601326 8.7185884,-4.0017078 c -1.7454984,2.3720609 -1.7354408,5.6174519 -6e-7,8.035443 z"
         style="fill:#4a1919;fill-opacity:1;fill-rule:evenodd;stroke:#4a1919;stroke-width:0.625;stroke-linejoin:round;stroke-opacity:1"
         id="path6275-1-5-8-27-1-8-5-9-9-5-1-9-6-0-1-2-7-3-5" />
    </marker>
    <marker
       style="overflow:visible"
       id="marker6277-1-8-7-9-2-8-0-4-9-9-2-2-4-9-9-1-9-0-7-1"
       refX="0"
       refY="0"
       orient="auto">
      <path
         transform="scale(-0.6)"
         d="M 8.7185878,4.0337352 -2.2072895,0.01601326 8.7185884,-4.0017078 c -1.7454984,2.3720609 -1.7354408,5.6174519 -6e-7,8.035443 z"
         style="fill:#4a1919;fill-opacity:1;fill-rule:evenodd;stroke:#4a1919;stroke-width:0.625;stroke-linejoin:round;stroke-opacity:1"
         id="path6275-1-5-8-27-1-8-5-9-9-5-1-9-6-0-1-2-7-3-5-1" />
    </marker>
    <marker
       style="overflow:visible"
       id="marker6277-1-8-7-9-2-8-0-4-9-9-2-2-4-9-9-1-9-3"
       refX="0"
       refY="0"
       orient="auto">
      <path
         transform="scale(-0.6)"
         d="M 8.7185878,4.0337352 -2.2072895,0.01601326 8.7185884,-4.0017078 c -1.7454984,2.3720609 -1.7354408,5.6174519 -6e-7,8.035443 z"
         style="fill:#4a1919;fill-opacity:1;fill-rule:evenodd;stroke:#4a1919;stroke-width:0.625;stroke-linejoin:round;stroke-opacity:1"
         id="path6275-1-5-8-27-1-8-5-9-9-5-1-9-6-0-1-2-7-4" />
    </marker>
    <marker
       style="overflow:visible"
       id="marker6277-1-8-7-9-2-8-0-4-9-9-2-2-4-7-6-6-5-39-6"
       refX="0"
       refY="0"
       orient="auto">
      <path
         transform="scale(-0.6)"
         d="M 8.7185878,4.0337352 -2.2072895,0.01601326 8.7185884,-4.0017078 c -1.7454984,2.3720609 -1.7354408,5.6174519 -6e-7,8.035443 z"
         style="fill:#000000;fill-opacity:1;fill-rule:evenodd;stroke:#000000;stroke-width:0.625;stroke-linejoin:round;stroke-opacity:1"
         id="path6275-1-5-8-27-1-8-5-9-9-5-1-9-6-8-6-0-8-8-7" />
    </marker>
    <marker
       style="overflow:visible"
       id="marker6277-1-8-7-9-2-8-0-4-9-9-2-2-4-7-6-6-5-39-6-0"
       refX="0"
       refY="0"
       orient="auto">
      <path
         transform="scale(-0.6)"
         d="M 8.7185878,4.0337352 -2.2072895,0.01601326 8.7185884,-4.0017078 c -1.7454984,2.3720609 -1.7354408,5.6174519 -6e-7,8.035443 z"
         style="fill:#000000;fill-opacity:1;fill-rule:evenodd;stroke:#000000;stroke-width:0.625;stroke-linejoin:round;stroke-opacity:1"
         id="path6275-1-5-8-27-1-8-5-9-9-5-1-9-6-8-6-0-8-8-7-7" />
    </marker>
    <marker
       style="overflow:visible"
       id="marker6277-1-8-7-9-2-8-0-4-9-9-2-2-4-7-6-6-5-39-6-0-9"
       refX="0"
       refY="0"
       orient="auto">
      <path
         transform="scale(-0.6)"
         d="M 8.7185878,4.0337352 -2.2072895,0.01601326 8.7185884,-4.0017078 c -1.7454984,2.3720609 -1.7354408,5.6174519 -6e-7,8.035443 z"
         style="fill:#000000;fill-opacity:1;fill-rule:evenodd;stroke:#000000;stroke-width:0.625;stroke-linejoin:round;stroke-opacity:1"
         id="path6275-1-5-8-27-1-8-5-9-9-5-1-9-6-8-6-0-8-8-7-7-0" />
    </marker>
    <marker
       style="overflow:visible"
       id="marker6277-1-8-7-9-2-8-0-4-9-9-2-2-4-7-6-6-5-39-6-0-9-7"
       refX="0"
       refY="0"
       orient="auto">
      <path
         transform="scale(-0.6)"
         d="M 8.7185878,4.0337352 -2.2072895,0.01601326 8.7185884,-4.0017078 c -1.7454984,2.3720609 -1.7354408,5.6174519 -6e-7,8.035443 z"
         style="fill:#000000;fill-opacity:1;fill-rule:evenodd;stroke:#000000;stroke-width:0.625;stroke-linejoin:round;stroke-opacity:1"
         id="path6275-1-5-8-27-1-8-5-9-9-5-1-9-6-8-6-0-8-8-7-7-0-5" />
    </marker>
    <marker
       style="overflow:visible"
       id="marker6277-1-8-7-9-2-8-0-4-9-9-2-2-4-7-6-6-5-39-6-1"
       refX="0"
       refY="0"
       orient="auto">
      <path
         transform="scale(-0.6)"
         d="M 8.7185878,4.0337352 -2.2072895,0.01601326 8.7185884,-4.0017078 c -1.7454984,2.3720609 -1.7354408,5.6174519 -6e-7,8.035443 z"
         style="fill:#000000;fill-opacity:1;fill-rule:evenodd;stroke:#000000;stroke-width:0.625;stroke-linejoin:round;stroke-opacity:1"
         id="path6275-1-5-8-27-1-8-5-9-9-5-1-9-6-8-6-0-8-8-7-5" />
    </marker>
    <marker
       style="overflow:visible"
       id="marker6277-1-8-7-9-2-8-0-4-9-9-2-2-4-7-6-6-5-39-6-0-5"
       refX="0"
       refY="0"
       orient="auto">
      <path
         transform="scale(-0.6)"
         d="M 8.7185878,4.0337352 -2.2072895,0.01601326 8.7185884,-4.0017078 c -1.7454984,2.3720609 -1.7354408,5.6174519 -6e-7,8.035443 z"
         style="fill:#000000;fill-opacity:1;fill-rule:evenodd;stroke:#000000;stroke-width:0.625;stroke-linejoin:round;stroke-opacity:1"
         id="path6275-1-5-8-27-1-8-5-9-9-5-1-9-6-8-6-0-8-8-7-7-1" />
    </marker>
    <marker
       style="overflow:visible"
       id="marker6277-1-8-7-9-2-8-0-4-9-9-2-2-4-7-6-6-5-39-6-4"
       refX="0"
       refY="0"
       orient="auto">
      <path
         transform="scale(-0.6)"
         d="M 8.7185878,4.0337352 -2.2072895,0.01601326 8.7185884,-4.0017078 c -1.7454984,2.3720609 -1.7354408,5.6174519 -6e-7,8.035443 z"
         style="fill:#000000;fill-opacity:1;fill-rule:evenodd;stroke:#000000;stroke-width:0.625;stroke-linejoin:round;stroke-opacity:1"
         id="path6275-1-5-8-27-1-8-5-9-9-5-1-9-6-8-6-0-8-8-7-78" />
    </marker>
    <marker
       style="overflow:visible"
       id="marker6277-1-8-7-9-2-8-0-4-9-9-2-2-4-7-6-6-5-39-6-4-8"
       refX="0"
       refY="0"
       orient="auto">
      <path
         transform="scale(-0.6)"
         d="M 8.7185878,4.0337352 -2.2072895,0.01601326 8.7185884,-4.0017078 c -1.7454984,2.3720609 -1.7354408,5.6174519 -6e-7,8.035443 z"
         style="fill:#000000;fill-opacity:1;fill-rule:evenodd;stroke:#000000;stroke-width:0.625;stroke-linejoin:round;stroke-opacity:1"
         id="path6275-1-5-8-27-1-8-5-9-9-5-1-9-6-8-6-0-8-8-7-78-4" />
    </marker>
    <marker
       style="overflow:visible"
       id="marker6277-1-8-7-9-2-8-0-4-9-9-2-2-4-9-9-1-9-0-6"
       refX="0"
       refY="0"
       orient="auto">
      <path
         transform="scale(-0.6)"
         d="M 8.7185878,4.0337352 -2.2072895,0.01601326 8.7185884,-4.0017078 c -1.7454984,2.3720609 -1.7354408,5.6174519 -6e-7,8.035443 z"
         style="fill:#4a1919;fill-opacity:1;fill-rule:evenodd;stroke:#4a1919;stroke-width:0.625;stroke-linejoin:round;stroke-opacity:1"
         id="path6275-1-5-8-27-1-8-5-9-9-5-1-9-6-0-1-2-7-3-1" />
    </marker>
    <marker
       style="overflow:visible"
       id="marker6277-1-8-7-9-2-8-0-4-9-9-2-2-4-9-9-1-9-0-7-1-9"
       refX="0"
       refY="0"
       orient="auto">
      <path
         transform="scale(-0.6)"
         d="M 8.7185878,4.0337352 -2.2072895,0.01601326 8.7185884,-4.0017078 c -1.7454984,2.3720609 -1.7354408,5.6174519 -6e-7,8.035443 z"
         style="fill:#4a1919;fill-opacity:1;fill-rule:evenodd;stroke:#4a1919;stroke-width:0.625;stroke-linejoin:round;stroke-opacity:1"
         id="path6275-1-5-8-27-1-8-5-9-9-5-1-9-6-0-1-2-7-3-5-1-4" />
    </marker>
    <marker
       style="overflow:visible"
       id="marker6277-1-8-7-9-2-8-0-4-9-9-2-2-4-7-6-6-5-39-6-0-9-8"
       refX="0"
       refY="0"
       orient="auto">
      <path
         transform="scale(-0.6)"
         d="M 8.7185878,4.0337352 -2.2072895,0.01601326 8.7185884,-4.0017078 c -1.7454984,2.3720609 -1.7354408,5.6174519 -6e-7,8.035443 z"
         style="fill:#000000;fill-opacity:1;fill-rule:evenodd;stroke:#000000;stroke-width:0.625;stroke-linejoin:round;stroke-opacity:1"
         id="path6275-1-5-8-27-1-8-5-9-9-5-1-9-6-8-6-0-8-8-7-7-0-0" />
    </marker>
    <marker
       style="overflow:visible"
       id="marker11889-3"
       refX="0"
       refY="0"
       orient="auto">
      <path
         transform="scale(-0.6)"
         d="M 8.7185878,4.0337352 -2.2072895,0.01601326 8.7185884,-4.0017078 c -1.7454984,2.3720609 -1.7354408,5.6174519 -6e-7,8.035443 z"
         style="fill:context-stroke;fill-rule:evenodd;stroke-width:0.625;stroke-linejoin:round"
         id="path11655-5" />
    </marker>
    <marker
       style="overflow:visible"
       id="marker11889-3-3"
       refX="0"
       refY="0"
       orient="auto">
      <path
         transform="scale(-0.6)"
         d="M 8.7185878,4.0337352 -2.2072895,0.01601326 8.7185884,-4.0017078 c -1.7454984,2.3720609 -1.7354408,5.6174519 -6e-7,8.035443 z"
         style="fill:context-stroke;fill-rule:evenodd;stroke-width:0.625;stroke-linejoin:round"
         id="path11655-5-6" />
    </marker>
    <filter
       style="color-interpolation-filters:sRGB"
       id="filter2698"
       x="-0.020250001"
       y="-0.040500002"
       width="1.0405"
       height="1.081">
      <feGaussianBlur
         stdDeviation="0.54"
         id="feGaussianBlur2700" />
    </filter>
    <rect
       x="-3.9287641"
       y="-42.779877"
       width="376.05707"
       height="48.93462"
       id="rect3029-0" />
    <rect
       x="-3.9287641"
       y="-42.779877"
       width="376.05707"
       height="48.93462"
       id="rect3029-9" />
  </defs>
  <rect
     style="fill:#1c54dd;fill-opacity:1;stroke-width:0.279;stroke-linejoin:round;paint-order:markers fill stroke"
     id="rect3804"
     width="85.006813"
     height="12.011827"
     x="0.34649587"
     y="-15.70778"
     rx="14.78653"
     ry="4.3788013" />
  <g
     id="layer1">
    <g
       id="g2772-77-2"
       transform="matrix(0.83095496,-0.00570261,0.00570261,0.83095496,-286.76225,180.57323)"
       style="opacity:0.0752033;stroke-width:0.482026" />
    <g
       id="g2772-77-9-7"
       transform="matrix(0.83073445,-0.00570111,0.00570111,0.83073445,-664.13253,319.41621)"
       style="opacity:1;fill:url(#linearGradient13613);fill-opacity:1;stroke-width:0.482153" />
    <rect
       style="mix-blend-mode:normal;fill:#000000;fill-opacity:0.5;stroke:none;stroke-width:0.100469;stroke-linecap:round;stroke-linejoin:round;stroke-miterlimit:4;stroke-dasharray:none;stroke-opacity:1;paint-order:fill markers stroke;filter:url(#filter2698)"
       id="rect1083-3-0-9"
       width="64"
       height="32"
       x="1.0583333"
       y="1.0583333"
       ry="3.3229742"
       rx="11.2212"
       transform="matrix(1.3114215,0,0,1.3114215,2.9945605,2.6009648)" />
    <text
       xml:space="preserve"
       transform="scale(0.26458333)"
       id="text9266"
       style="font-style:italic;font-size:3.83967px;line-height:1.25;font-family:Calibri;-inkscape-font-specification:'Calibri, Italic';font-variant-ligatures:none;text-align:center;letter-spacing:0px;word-spacing:0px;writing-mode:lr-tb;white-space:pre;shape-inside:url(#rect9268)" />
    <text
       xml:space="preserve"
       transform="scale(0.26458333)"
       id="text142876"
       style="font-style:italic;font-size:3.83967px;line-height:1.25;font-family:Calibri;-inkscape-font-specification:'Calibri, Italic';font-variant-ligatures:none;text-align:center;letter-spacing:0px;word-spacing:0px;writing-mode:lr-tb;white-space:pre;shape-inside:url(#rect142878)" />
    <path
       id="rect1083-3-0-2-4-67"
       style="fill:#306bf1;stroke-width:0.132392;stroke-linecap:round;stroke-linejoin:round;paint-order:fill markers stroke;fill-opacity:1"
       d="m 16.610068,1.4299587 h 54.357937 c 8.191739,0 14.786529,1.9529401 14.786529,4.3787889 V 38.692751 c 0,2.425849 -6.59479,4.378789 -14.786529,4.378789 H 16.610068 c -8.1917379,0 -14.7865288,-1.95294 -14.7865288,-4.378789 V 5.8087476 c 0,-2.4258488 6.5947909,-4.3787889 14.7865288,-4.3787889 z" />
    <g
       id="g59825-6-9-0"
       transform="matrix(1.3177318,0,0,1.3177318,-97.030961,-317.47756)"
       style="fill:#ffffff;opacity:0.85">
      <g
         aria-label="OCEANS"
         transform="scale(0.91634797,1.0912885)"
         id="text891-8-2-2-6-4-4-6-4-4-4-71-4-8-8-4-7-4-3-0-4-4-4-7-4-5-4-2-2-2-6"
         style="font-size:14.6561px;line-height:1.25;font-family:'Arial Rounded MT Bold';-inkscape-font-specification:'Arial Rounded MT Bold, Normal';font-variant-ligatures:none;text-align:center;letter-spacing:0.15875px;word-spacing:0px;text-anchor:middle;stroke-width:0.201759">
        <path
           d="m 90.24322,224.74636 q 1.631636,0 2.798113,0.66553 1.173633,0.65838 1.774762,1.88211 0.601129,1.21657 0.601129,2.86252 0,1.21657 -0.32919,2.21129 -0.32919,0.99473 -0.987569,1.72467 -0.65838,0.72994 -1.617324,1.11638 -0.958944,0.38644 -2.196984,0.38644 -1.230883,0 -2.20414,-0.39359 -0.973256,-0.40075 -1.624479,-1.12354 -0.651224,-0.72279 -0.98757,-1.73898 -0.32919,-1.0162 -0.32919,-2.19699 0,-1.20941 0.343503,-2.21845 0.350658,-1.00904 1.009038,-1.71751 0.658379,-0.70847 1.603011,-1.0806 0.944631,-0.37928 2.14689,-0.37928 z m 3.019958,5.39584 q 0,-1.15216 -0.372128,-1.9966 -0.372127,-0.84445 -1.066288,-1.27382 -0.687005,-0.43654 -1.581542,-0.43654 -0.636911,0 -1.18079,0.24332 -0.536722,0.23615 -0.930319,0.69416 -0.38644,0.458 -0.615441,1.17363 -0.221846,0.70847 -0.221846,1.59585 0,0.89454 0.221846,1.61733 0.229001,0.72278 0.63691,1.20226 0.415066,0.47231 0.944632,0.70847 0.536722,0.23616 1.173633,0.23616 0.815818,0 1.495666,-0.40791 0.687005,-0.40791 1.087758,-1.25951 0.407909,-0.8516 0.407909,-2.0968 z"
           style="text-align:start;text-anchor:start"
           id="path27900" />
        <path
           d="m 106.33189,232.10303 q 0,0.50094 -0.25047,1.08776 -0.24331,0.57966 -0.77288,1.14501 -0.52957,0.55819 -1.35254,0.90885 -0.82297,0.35065 -1.91789,0.35065 -0.83013,0 -1.50998,-0.15743 -0.679846,-0.15744 -1.238037,-0.48663 -0.551035,-0.33635 -1.016195,-0.88023 -0.415065,-0.49378 -0.708473,-1.10207 -0.293408,-0.61544 -0.443691,-1.3096 -0.143126,-0.69416 -0.143126,-1.4742 0,-1.26666 0.364972,-2.26854 0.372127,-1.00189 1.059132,-1.71036 0.687004,-0.71563 1.610168,-1.08776 0.92316,-0.37212 1.96798,-0.37212 1.27382,0 2.26855,0.50809 0.99472,0.5081 1.52429,1.25951 0.52957,0.74426 0.52957,1.40979 0,0.36497 -0.25763,0.64407 -0.25763,0.27909 -0.6226,0.27909 -0.40791,0 -0.61544,-0.19322 -0.20038,-0.19322 -0.45085,-0.66553 -0.41506,-0.78004 -0.98041,-1.16648 -0.55819,-0.38644 -1.38117,-0.38644 -1.3096,0 -2.089635,0.99473 -0.772881,0.99472 -0.772881,2.82674 0,1.22372 0.343503,2.03954 0.343502,0.80866 0.973253,1.20942 0.62976,0.40075 1.4742,0.40075 0.91601,0 1.54576,-0.45085 0.63691,-0.458 0.95895,-1.33823 0.13597,-0.41506 0.33634,-0.67269 0.20038,-0.26478 0.64407,-0.26478 0.37928,0 0.65122,0.26478 0.27194,0.26478 0.27194,0.65838 z"
           style="text-align:start;text-anchor:start"
           id="path27902" />
        <path
           d="m 115.31436,226.56406 h -4.78757 v 2.57626 h 4.40828 q 0.48663,0 0.72279,0.22185 0.24331,0.21469 0.24331,0.5725 0,0.35782 -0.23615,0.58682 -0.23616,0.22184 -0.72995,0.22184 h -4.40828 v 2.98418 h 4.95216 q 0.50094,0 0.75141,0.23616 0.25763,0.229 0.25763,0.61544 0,0.37213 -0.25763,0.60829 -0.25047,0.229 -0.75141,0.229 h -5.77513 q -0.69416,0 -1.00188,-0.30772 -0.30057,-0.30772 -0.30057,-0.99473 v -7.88624 q 0,-0.458 0.13597,-0.74426 0.13597,-0.2934 0.42222,-0.42222 0.29341,-0.13597 0.74426,-0.13597 h 5.61054 q 0.50809,0 0.75141,0.229 0.25047,0.22185 0.25047,0.58682 0,0.37213 -0.25047,0.60113 -0.24332,0.22185 -0.75141,0.22185 z"
           style="text-align:start;text-anchor:start"
           id="path27904" />
        <path
           d="m 125.04824,234.22845 -0.50094,-1.31676 h -4.26516 l -0.50094,1.34539 q -0.29341,0.78719 -0.50094,1.06629 -0.20753,0.27193 -0.67985,0.27193 -0.40075,0 -0.70847,-0.2934 -0.30772,-0.29341 -0.30772,-0.66554 0,-0.21469 0.0716,-0.44369 0.0716,-0.229 0.23616,-0.63691 l 2.68361,-6.8128 q 0.1145,-0.29341 0.27194,-0.70131 0.16459,-0.41507 0.3435,-0.68701 0.18607,-0.27194 0.47947,-0.43653 0.30057,-0.17175 0.7371,-0.17175 0.44369,0 0.7371,0.17175 0.30057,0.16459 0.47947,0.42937 0.18607,0.26479 0.30772,0.57251 0.12882,0.30056 0.32204,0.80866 l 2.74086,6.76986 q 0.32203,0.77288 0.32203,1.12354 0,0.36497 -0.30772,0.67269 -0.30056,0.30056 -0.72994,0.30056 -0.25047,0 -0.42938,-0.093 -0.17891,-0.0859 -0.30056,-0.23616 -0.12166,-0.15743 -0.26479,-0.47231 -0.13597,-0.32203 -0.23615,-0.56535 z m -4.20791,-2.91261 h 3.13446 l -1.58154,-4.32956 z"
           style="text-align:start;text-anchor:start"
           id="path27906" />
        <path
           d="m 131.80509,226.02018 4.08625,6.18304 v -6.24029 q 0,-0.60829 0.25763,-0.90885 0.26478,-0.30772 0.70847,-0.30772 0.458,0 0.72279,0.30772 0.26478,0.30056 0.26478,0.90885 v 8.25121 q 0,1.38116 -1.14501,1.38116 -0.28625,0 -0.51525,-0.0859 -0.229,-0.0787 -0.42938,-0.25763 -0.20038,-0.17891 -0.37213,-0.41506 -0.17175,-0.24332 -0.3435,-0.49379 l -3.98606,-6.11148 v 6.14726 q 0,0.60113 -0.27909,0.90885 -0.2791,0.30772 -0.71563,0.30772 -0.45085,0 -0.72279,-0.30772 -0.27194,-0.31487 -0.27194,-0.90885 v -8.09377 q 0,-0.51525 0.1145,-0.80866 0.13597,-0.32204 0.45085,-0.52241 0.31488,-0.20753 0.67985,-0.20753 0.28625,0 0.48663,0.093 0.20753,0.093 0.35781,0.25047 0.15744,0.15744 0.31488,0.40791 0.16459,0.25047 0.33634,0.52241 z"
           style="text-align:start;text-anchor:start"
           id="path27908" />
        <path
           d="m 148.30168,232.26763 q 0,0.95178 -0.49379,1.71035 -0.48663,0.75857 -1.43126,1.18795 -0.94463,0.42937 -2.23992,0.42937 -1.55292,0 -2.56195,-0.58681 -0.71563,-0.42222 -1.16648,-1.12354 -0.44369,-0.70847 -0.44369,-1.37401 0,-0.38644 0.26478,-0.65838 0.27194,-0.2791 0.68701,-0.2791 0.33634,0 0.56534,0.21469 0.23616,0.21469 0.40076,0.63691 0.20037,0.50095 0.42937,0.83729 0.23616,0.33635 0.65838,0.55819 0.42223,0.21469 1.10923,0.21469 0.94463,0 1.53145,-0.43653 0.59397,-0.44369 0.59397,-1.10207 0,-0.52241 -0.32203,-0.84445 -0.31488,-0.32919 -0.82298,-0.50094 -0.50094,-0.17175 -1.34538,-0.36497 -1.1307,-0.26478 -1.89642,-0.61544 -0.75857,-0.35781 -1.20942,-0.9661 -0.44369,-0.61544 -0.44369,-1.52429 0,-0.86591 0.47232,-1.53861 0.47232,-0.67269 1.36685,-1.0305 0.89454,-0.36497 2.10395,-0.36497 0.96611,0 1.66742,0.24331 0.70848,0.23616 1.17364,0.63691 0.46516,0.3936 0.67984,0.83013 0.21469,0.43654 0.21469,0.8516 0,0.37928 -0.27194,0.68701 -0.26478,0.30056 -0.66553,0.30056 -0.36497,0 -0.55819,-0.17891 -0.18607,-0.18606 -0.40791,-0.60113 -0.28625,-0.59397 -0.68701,-0.92316 -0.40075,-0.33635 -1.28813,-0.33635 -0.82298,0 -1.33107,0.36498 -0.50094,0.35781 -0.50094,0.86591 0,0.31487 0.17175,0.54388 0.17175,0.229 0.47231,0.39359 0.30057,0.1646 0.60829,0.25763 0.30772,0.093 1.01619,0.27194 0.88738,0.20753 1.60301,0.458 0.72279,0.25047 1.22373,0.60829 0.5081,0.35781 0.78719,0.90885 0.28626,0.54388 0.28626,1.33823 z"
           style="text-align:start;text-anchor:start"
           id="path27910" />
      </g>
      <g
         aria-label="Health, resources, and energy"
         id="text39694-7-5-15-6-3-7"
         style="font-style:italic;font-size:4.23061px;line-height:1.45;font-family:Calibri;-inkscape-font-specification:'Calibri, Italic';font-variant-ligatures:none;text-align:center;letter-spacing:0px;word-spacing:0px;text-anchor:middle;stroke-width:0.264583">
        <path
           d="m 78.018581,264.79407 v -3.02836 h 0.400751 v 1.24357 h 1.574085 v -1.24357 h 0.400751 v 3.02836 h -0.400751 v -1.42742 h -1.574085 v 1.42742 z"
           style="font-style:normal;font-family:Arial;-inkscape-font-specification:Arial;text-align:start;text-anchor:start"
           id="path27913" />
        <path
           d="m 82.51567,264.08759 0.384225,0.0475 q -0.09089,0.33671 -0.336713,0.52263 -0.245822,0.18591 -0.627981,0.18591 -0.481315,0 -0.764319,-0.29539 -0.280939,-0.29747 -0.280939,-0.83249 0,-0.55362 0.28507,-0.85935 0.28507,-0.30572 0.73953,-0.30572 0.44,0 0.718874,0.29953 0.278873,0.29953 0.278873,0.84281 0,0.0331 -0.0021,0.0992 h -1.636056 q 0.02066,0.3615 0.204507,0.55361 0.18385,0.19212 0.458591,0.19212 0.204507,0 0.349108,-0.10742 0.144601,-0.10742 0.229296,-0.34291 z m -1.220845,-0.60113 h 1.224977 q -0.02479,-0.27681 -0.14047,-0.41521 -0.177652,-0.21484 -0.460657,-0.21484 -0.25615,0 -0.431737,0.17146 -0.173521,0.17146 -0.192113,0.45859 z"
           style="font-style:normal;font-family:Arial;-inkscape-font-specification:Arial;text-align:start;text-anchor:start"
           id="path27915" />
        <path
           d="m 84.798299,264.52346 q -0.206573,0.17558 -0.398686,0.24788 -0.190047,0.0723 -0.409014,0.0723 -0.361502,0 -0.55568,-0.17558 -0.194179,-0.17765 -0.194179,-0.4524 0,-0.16112 0.0723,-0.29333 0.07437,-0.13427 0.192112,-0.21484 0.119812,-0.0806 0.268545,-0.12187 0.109483,-0.0289 0.330516,-0.0558 0.450329,-0.0537 0.663099,-0.12807 0.0021,-0.0764 0.0021,-0.0971 0,-0.22723 -0.105352,-0.32019 -0.142535,-0.12601 -0.423474,-0.12601 -0.262347,0 -0.388357,0.093 -0.123943,0.0909 -0.183849,0.32432 l -0.363568,-0.0496 q 0.04958,-0.23343 0.163192,-0.37596 0.113615,-0.1446 0.328451,-0.22104 0.214836,-0.0785 0.49784,-0.0785 0.280939,0 0.456526,0.0661 0.175587,0.0661 0.258216,0.16732 0.08263,0.0992 0.115681,0.25202 0.01859,0.095 0.01859,0.34291 v 0.49578 q 0,0.5185 0.02272,0.6569 0.02479,0.13634 0.09502,0.26235 h -0.388357 q -0.05784,-0.11568 -0.07437,-0.27061 z m -0.03099,-0.83043 q -0.202442,0.0826 -0.607324,0.14047 -0.229296,0.0331 -0.324319,0.0744 -0.09502,0.0413 -0.146667,0.12188 -0.05164,0.0785 -0.05164,0.17559 0,0.14873 0.111549,0.24788 0.113615,0.0992 0.330517,0.0992 0.214835,0 0.382159,-0.093 0.167324,-0.095 0.245822,-0.25822 0.05991,-0.12601 0.05991,-0.37183 z"
           style="font-style:normal;font-family:Arial;-inkscape-font-specification:Arial;text-align:start;text-anchor:start"
           id="path27917" />
        <path
           d="m 85.71135,264.79407 v -3.02836 h 0.371831 v 3.02836 z"
           style="font-style:normal;font-family:Arial;-inkscape-font-specification:Arial;text-align:start;text-anchor:start"
           id="path27919" />
        <path
           d="m 87.47135,264.46149 0.05371,0.32845 q -0.156996,0.0331 -0.280939,0.0331 -0.202441,0 -0.313991,-0.064 -0.111549,-0.064 -0.156995,-0.16732 -0.04545,-0.10536 -0.04545,-0.44 v -1.26216 h -0.272676 v -0.28921 h 0.272676 v -0.54328 l 0.369765,-0.2231 v 0.76638 h 0.373897 v 0.28921 H 87.09745 v 1.28281 q 0,0.15906 0.01859,0.20451 0.02066,0.0454 0.06404,0.0723 0.04545,0.0269 0.128075,0.0269 0.06197,0 0.163193,-0.0145 z"
           style="font-style:normal;font-family:Arial;-inkscape-font-specification:Arial;text-align:start;text-anchor:start"
           id="path27921" />
        <path
           d="m 87.834919,264.79407 v -3.02836 h 0.371831 v 1.08657 q 0.260281,-0.30159 0.656901,-0.30159 0.243756,0 0.423474,0.0971 0.179718,0.095 0.25615,0.26441 0.0785,0.16939 0.0785,0.49164 v 1.39024 h -0.371831 v -1.39024 q 0,-0.27887 -0.121878,-0.40488 -0.119812,-0.12807 -0.340845,-0.12807 -0.165258,0 -0.311925,0.0868 -0.144601,0.0847 -0.206572,0.23136 -0.06197,0.14666 -0.06197,0.40488 v 1.20019 z"
           style="font-style:normal;font-family:Arial;-inkscape-font-specification:Arial;text-align:start;text-anchor:start"
           id="path27923" />
        <path
           d="m 90.284871,264.79407 v -0.42348 h 0.423474 v 0.42348 q 0,0.23342 -0.08263,0.37596 -0.08263,0.1446 -0.262347,0.2231 l -0.103286,-0.15906 q 0.117746,-0.0516 0.173521,-0.15287 0.05577,-0.0992 0.06197,-0.28713 z"
           style="font-style:normal;font-family:Arial;-inkscape-font-specification:Arial;text-align:start;text-anchor:start"
           id="path27925" />
        <path
           d="m 92.534448,264.79407 v -2.19381 h 0.334648 v 0.33259 q 0.128075,-0.23343 0.235493,-0.3078 0.109484,-0.0744 0.239624,-0.0744 0.187982,0 0.38216,0.11981 l -0.128075,0.34498 q -0.136338,-0.0806 -0.272676,-0.0806 -0.121878,0 -0.218967,0.0744 -0.09709,0.0723 -0.138404,0.20244 -0.06197,0.19831 -0.06197,0.4338 v 1.14855 z"
           style="font-style:normal;font-family:Arial;-inkscape-font-specification:Arial;text-align:start;text-anchor:start"
           id="path27927" />
        <path
           d="m 95.449189,264.08759 0.384226,0.0475 q -0.09089,0.33671 -0.336714,0.52263 -0.245821,0.18591 -0.627981,0.18591 -0.481314,0 -0.764319,-0.29539 -0.280939,-0.29747 -0.280939,-0.83249 0,-0.55362 0.28507,-0.85935 0.285071,-0.30572 0.739531,-0.30572 0.44,0 0.718873,0.29953 0.278873,0.29953 0.278873,0.84281 0,0.0331 -0.0021,0.0992 h -1.636056 q 0.02066,0.3615 0.204507,0.55361 0.18385,0.19212 0.458592,0.19212 0.204507,0 0.349108,-0.10742 0.144601,-0.10742 0.229295,-0.34291 z m -1.220844,-0.60113 h 1.224976 q -0.02479,-0.27681 -0.14047,-0.41521 -0.177652,-0.21484 -0.460657,-0.21484 -0.25615,0 -0.431737,0.17146 -0.173521,0.17146 -0.192112,0.45859 z"
           style="font-style:normal;font-family:Arial;-inkscape-font-specification:Arial;text-align:start;text-anchor:start"
           id="path27929" />
        <path
           d="m 96.151537,264.13923 0.3677,-0.0578 q 0.03099,0.22103 0.171455,0.33878 0.142536,0.11775 0.39662,0.11775 0.25615,0 0.380094,-0.10329 0.123944,-0.10535 0.123944,-0.24582 0,-0.12601 -0.109484,-0.19831 -0.07643,-0.0496 -0.380094,-0.12601 -0.409014,-0.10329 -0.568075,-0.17765 -0.156995,-0.0764 -0.239624,-0.20864 -0.08056,-0.13427 -0.08056,-0.2954 0,-0.14667 0.0661,-0.27061 0.06817,-0.12601 0.183849,-0.20864 0.08676,-0.064 0.235493,-0.10742 0.150798,-0.0454 0.322254,-0.0454 0.258216,0 0.452394,0.0744 0.196244,0.0744 0.289202,0.20244 0.09296,0.12601 0.128075,0.33878 l -0.363568,0.0496 q -0.02479,-0.16939 -0.144601,-0.26441 -0.117746,-0.095 -0.334648,-0.095 -0.25615,0 -0.365634,0.0847 -0.109483,0.0847 -0.109483,0.19831 0,0.0723 0.04545,0.13014 0.04545,0.0599 0.142535,0.0992 0.05578,0.0206 0.328451,0.095 0.394554,0.10535 0.549483,0.17352 0.156996,0.0661 0.245822,0.19418 0.08883,0.12807 0.08883,0.31812 0,0.18592 -0.109483,0.35117 -0.107418,0.1632 -0.311925,0.25409 -0.204507,0.0888 -0.462723,0.0888 -0.427606,0 -0.65277,-0.17765 -0.223099,-0.17765 -0.285071,-0.52676 z"
           style="font-style:normal;font-family:Arial;-inkscape-font-specification:Arial;text-align:start;text-anchor:start"
           id="path27931" />
        <path
           d="m 98.277171,263.69717 q 0,-0.60939 0.338779,-0.90273 0.283005,-0.24375 0.689953,-0.24375 0.452395,0 0.739527,0.29746 0.28714,0.2954 0.28714,0.81803 0,0.42347 -0.12808,0.66723 -0.126,0.24169 -0.36976,0.37596 -0.241691,0.13427 -0.528827,0.13427 -0.460657,0 -0.745727,-0.29539 -0.283005,-0.2954 -0.283005,-0.85108 z m 0.38216,0 q 0,0.4214 0.183849,0.63211 0.18385,0.20864 0.462723,0.20864 0.276808,0 0.460658,-0.21071 0.183849,-0.2107 0.183849,-0.64244 0,-0.40695 -0.185915,-0.61559 -0.18385,-0.2107 -0.458592,-0.2107 -0.278873,0 -0.462723,0.20864 -0.183849,0.20864 -0.183849,0.63005 z"
           style="font-style:normal;font-family:Arial;-inkscape-font-specification:Arial;text-align:start;text-anchor:start"
           id="path27933" />
        <path
           d="m 102.20618,264.79407 v -0.32226 q -0.25615,0.37183 -0.69615,0.37183 -0.19417,0 -0.36356,-0.0744 -0.16733,-0.0744 -0.24996,-0.18592 -0.0806,-0.11361 -0.11361,-0.2768 -0.0227,-0.10949 -0.0227,-0.34705 v -1.35925 h 0.37183 v 1.21672 q 0,0.29127 0.0227,0.39249 0.0351,0.14666 0.14873,0.23136 0.11362,0.0826 0.28094,0.0826 0.16732,0 0.31399,-0.0847 0.14667,-0.0868 0.20657,-0.23342 0.062,-0.14874 0.062,-0.42968 v -1.1754 h 0.37183 v 2.19381 z"
           style="font-style:normal;font-family:Arial;-inkscape-font-specification:Arial;text-align:start;text-anchor:start"
           id="path27935" />
        <path
           d="m 103.11717,264.79407 v -2.19381 h 0.33465 v 0.33259 q 0.12807,-0.23343 0.23549,-0.3078 0.10948,-0.0744 0.23963,-0.0744 0.18798,0 0.38215,0.11981 l -0.12807,0.34498 q -0.13634,-0.0806 -0.27268,-0.0806 -0.12187,0 -0.21896,0.0744 -0.0971,0.0723 -0.13841,0.20244 -0.062,0.19831 -0.062,0.4338 v 1.14855 z"
           style="font-style:normal;font-family:Arial;-inkscape-font-specification:Arial;text-align:start;text-anchor:start"
           id="path27937" />
        <path
           d="m 105.96168,263.9905 0.36563,0.0475 q -0.0599,0.37803 -0.30779,0.59286 -0.24582,0.21277 -0.60526,0.21277 -0.45033,0 -0.72507,-0.29333 -0.27268,-0.2954 -0.27268,-0.84488 0,-0.35531 0.11775,-0.62178 0.11775,-0.26648 0.35737,-0.39869 0.24169,-0.13427 0.5247,-0.13427 0.35737,0 0.5846,0.18178 0.22723,0.17972 0.29126,0.5123 l -0.3615,0.0558 q -0.0516,-0.22104 -0.18385,-0.33259 -0.13014,-0.11155 -0.31605,-0.11155 -0.28094,0 -0.45653,0.20245 -0.17559,0.20037 -0.17559,0.63624 0,0.44207 0.16939,0.64244 0.16939,0.20038 0.44207,0.20038 0.21897,0 0.36563,-0.13428 0.14667,-0.13427 0.18592,-0.41314 z"
           style="font-style:normal;font-family:Arial;-inkscape-font-specification:Arial;text-align:start;text-anchor:start"
           id="path27939" />
        <path
           d="m 108.14722,264.08759 0.38422,0.0475 q -0.0909,0.33671 -0.33671,0.52263 -0.24582,0.18591 -0.62798,0.18591 -0.48132,0 -0.76432,-0.29539 -0.28094,-0.29747 -0.28094,-0.83249 0,-0.55362 0.28507,-0.85935 0.28507,-0.30572 0.73953,-0.30572 0.44,0 0.71887,0.29953 0.27888,0.29953 0.27888,0.84281 0,0.0331 -0.002,0.0992 h -1.63606 q 0.0207,0.3615 0.20451,0.55361 0.18385,0.19212 0.45859,0.19212 0.20451,0 0.34911,-0.10742 0.1446,-0.10742 0.2293,-0.34291 z m -1.22085,-0.60113 h 1.22498 q -0.0248,-0.27681 -0.14047,-0.41521 -0.17765,-0.21484 -0.46066,-0.21484 -0.25615,0 -0.43174,0.17146 -0.17352,0.17146 -0.19211,0.45859 z"
           style="font-style:normal;font-family:Arial;-inkscape-font-specification:Arial;text-align:start;text-anchor:start"
           id="path27941" />
        <path
           d="m 108.84956,264.13923 0.3677,-0.0578 q 0.031,0.22103 0.17146,0.33878 0.14253,0.11775 0.39662,0.11775 0.25615,0 0.38009,-0.10329 0.12395,-0.10535 0.12395,-0.24582 0,-0.12601 -0.10949,-0.19831 -0.0764,-0.0496 -0.38009,-0.12601 -0.40902,-0.10329 -0.56808,-0.17765 -0.15699,-0.0764 -0.23962,-0.20864 -0.0806,-0.13427 -0.0806,-0.2954 0,-0.14667 0.0661,-0.27061 0.0682,-0.12601 0.18385,-0.20864 0.0868,-0.064 0.23549,-0.10742 0.1508,-0.0454 0.32226,-0.0454 0.25821,0 0.45239,0.0744 0.19624,0.0744 0.2892,0.20244 0.093,0.12601 0.12808,0.33878 l -0.36357,0.0496 q -0.0248,-0.16939 -0.1446,-0.26441 -0.11775,-0.095 -0.33465,-0.095 -0.25615,0 -0.36563,0.0847 -0.10949,0.0847 -0.10949,0.19831 0,0.0723 0.0454,0.13014 0.0454,0.0599 0.14253,0.0992 0.0558,0.0206 0.32845,0.095 0.39456,0.10535 0.54949,0.17352 0.15699,0.0661 0.24582,0.19418 0.0888,0.12807 0.0888,0.31812 0,0.18592 -0.10949,0.35117 -0.10742,0.1632 -0.31192,0.25409 -0.20451,0.0888 -0.46273,0.0888 -0.4276,0 -0.65277,-0.17765 -0.22309,-0.17765 -0.28507,-0.52676 z"
           style="font-style:normal;font-family:Arial;-inkscape-font-specification:Arial;text-align:start;text-anchor:start"
           id="path27943" />
        <path
           d="m 111.21069,264.79407 v -0.42348 h 0.42347 v 0.42348 q 0,0.23342 -0.0826,0.37596 -0.0826,0.1446 -0.26235,0.2231 l -0.10329,-0.15906 q 0.11775,-0.0516 0.17352,-0.15287 0.0558,-0.0992 0.062,-0.28713 z"
           style="font-style:normal;font-family:Arial;-inkscape-font-specification:Arial;text-align:start;text-anchor:start"
           id="path27945" />
        <path
           d="m 114.89595,264.52346 q -0.20658,0.17558 -0.39869,0.24788 -0.19005,0.0723 -0.40901,0.0723 -0.36151,0 -0.55568,-0.17558 -0.19418,-0.17765 -0.19418,-0.4524 0,-0.16112 0.0723,-0.29333 0.0744,-0.13427 0.19211,-0.21484 0.11981,-0.0806 0.26855,-0.12187 0.10948,-0.0289 0.33051,-0.0558 0.45033,-0.0537 0.6631,-0.12807 0.002,-0.0764 0.002,-0.0971 0,-0.22723 -0.10536,-0.32019 -0.14253,-0.12601 -0.42347,-0.12601 -0.26235,0 -0.38836,0.093 -0.12394,0.0909 -0.18385,0.32432 l -0.36356,-0.0496 q 0.0496,-0.23343 0.16319,-0.37596 0.11361,-0.1446 0.32845,-0.22104 0.21483,-0.0785 0.49784,-0.0785 0.28094,0 0.45652,0.0661 0.17559,0.0661 0.25822,0.16732 0.0826,0.0992 0.11568,0.25202 0.0186,0.095 0.0186,0.34291 v 0.49578 q 0,0.5185 0.0227,0.6569 0.0248,0.13634 0.095,0.26235 h -0.38836 q -0.0578,-0.11568 -0.0744,-0.27061 z m -0.031,-0.83043 q -0.20244,0.0826 -0.60732,0.14047 -0.2293,0.0331 -0.32432,0.0744 -0.095,0.0413 -0.14667,0.12188 -0.0516,0.0785 -0.0516,0.17559 0,0.14873 0.11155,0.24788 0.11361,0.0992 0.33051,0.0992 0.21484,0 0.38216,-0.093 0.16733,-0.095 0.24582,-0.25822 0.0599,-0.12601 0.0599,-0.37183 z"
           style="font-style:normal;font-family:Arial;-inkscape-font-specification:Arial;text-align:start;text-anchor:start"
           id="path27947" />
        <path
           d="m 115.81726,264.79407 v -2.19381 h 0.33465 v 0.31193 q 0.24169,-0.3615 0.69822,-0.3615 0.19831,0 0.36357,0.0723 0.16732,0.0702 0.24995,0.18591 0.0826,0.11568 0.11568,0.27475 0.0207,0.10328 0.0207,0.3615 v 1.34892 h -0.37183 v -1.33446 q 0,-0.22723 -0.0434,-0.33878 -0.0434,-0.11362 -0.15493,-0.17972 -0.10949,-0.0682 -0.25822,-0.0682 -0.23756,0 -0.41108,0.1508 -0.17145,0.1508 -0.17145,0.57221 v 1.19812 z"
           style="font-style:normal;font-family:Arial;-inkscape-font-specification:Arial;text-align:start;text-anchor:start"
           id="path27949" />
        <path
           d="m 119.59341,264.79407 v -0.27681 q -0.20863,0.32638 -0.61352,0.32638 -0.26234,0 -0.48338,-0.1446 -0.21896,-0.1446 -0.34084,-0.40281 -0.11981,-0.26028 -0.11981,-0.597 0,-0.32845 0.10948,-0.59493 0.10948,-0.26854 0.32845,-0.41108 0.21897,-0.14253 0.48958,-0.14253 0.19831,0 0.35324,0.0847 0.15493,0.0826 0.25202,0.2169 v -1.08657 h 0.36976 v 3.02836 z m -1.1754,-1.09484 q 0,0.42141 0.17766,0.63005 0.17765,0.20864 0.41934,0.20864 0.24376,0 0.41315,-0.19831 0.17145,-0.20038 0.17145,-0.60939 0,-0.45033 -0.17352,-0.66104 -0.17352,-0.2107 -0.42761,-0.2107 -0.24788,0 -0.41521,0.20244 -0.16526,0.20244 -0.16526,0.63831 z"
           style="font-style:normal;font-family:Arial;-inkscape-font-specification:Arial;text-align:start;text-anchor:start"
           id="path27951" />
        <path
           d="m 123.20017,264.08759 0.38423,0.0475 q -0.0909,0.33671 -0.33672,0.52263 -0.24582,0.18591 -0.62798,0.18591 -0.48131,0 -0.76432,-0.29539 -0.28094,-0.29747 -0.28094,-0.83249 0,-0.55362 0.28507,-0.85935 0.28507,-0.30572 0.73953,-0.30572 0.44,0 0.71888,0.29953 0.27887,0.29953 0.27887,0.84281 0,0.0331 -0.002,0.0992 h -1.63605 q 0.0207,0.3615 0.20451,0.55361 0.18385,0.19212 0.45859,0.19212 0.2045,0 0.34911,-0.10742 0.1446,-0.10742 0.22929,-0.34291 z m -1.22084,-0.60113 h 1.22497 q -0.0248,-0.27681 -0.14047,-0.41521 -0.17765,-0.21484 -0.46065,-0.21484 -0.25615,0 -0.43174,0.17146 -0.17352,0.17146 -0.19211,0.45859 z"
           style="font-style:normal;font-family:Arial;-inkscape-font-specification:Arial;text-align:start;text-anchor:start"
           id="path27953" />
        <path
           d="m 124.05125,264.79407 v -2.19381 h 0.33465 v 0.31193 q 0.24169,-0.3615 0.69821,-0.3615 0.19831,0 0.36357,0.0723 0.16733,0.0702 0.24996,0.18591 0.0826,0.11568 0.11568,0.27475 0.0206,0.10328 0.0206,0.3615 v 1.34892 h -0.37183 v -1.33446 q 0,-0.22723 -0.0434,-0.33878 -0.0434,-0.11362 -0.15493,-0.17972 -0.10948,-0.0682 -0.25821,-0.0682 -0.23756,0 -0.41108,0.1508 -0.17146,0.1508 -0.17146,0.57221 v 1.19812 z"
           style="font-style:normal;font-family:Arial;-inkscape-font-specification:Arial;text-align:start;text-anchor:start"
           id="path27955" />
        <path
           d="m 127.9059,264.08759 0.38423,0.0475 q -0.0909,0.33671 -0.33672,0.52263 -0.24582,0.18591 -0.62798,0.18591 -0.48131,0 -0.76432,-0.29539 -0.28094,-0.29747 -0.28094,-0.83249 0,-0.55362 0.28507,-0.85935 0.28507,-0.30572 0.73953,-0.30572 0.44,0 0.71888,0.29953 0.27887,0.29953 0.27887,0.84281 0,0.0331 -0.002,0.0992 h -1.63606 q 0.0207,0.3615 0.20451,0.55361 0.18385,0.19212 0.45859,0.19212 0.2045,0 0.34911,-0.10742 0.1446,-0.10742 0.22929,-0.34291 z m -1.22084,-0.60113 h 1.22497 q -0.0248,-0.27681 -0.14047,-0.41521 -0.17765,-0.21484 -0.46065,-0.21484 -0.25615,0 -0.43174,0.17146 -0.17352,0.17146 -0.19211,0.45859 z"
           style="font-style:normal;font-family:Arial;-inkscape-font-specification:Arial;text-align:start;text-anchor:start"
           id="path27957" />
        <path
           d="m 128.75285,264.79407 v -2.19381 h 0.33465 v 0.33259 q 0.12807,-0.23343 0.23549,-0.3078 0.10948,-0.0744 0.23962,-0.0744 0.18799,0 0.38216,0.11981 l -0.12807,0.34498 q -0.13634,-0.0806 -0.27268,-0.0806 -0.12188,0 -0.21896,0.0744 -0.0971,0.0723 -0.13841,0.20244 -0.062,0.19831 -0.062,0.4338 v 1.14855 z"
           style="font-style:normal;font-family:Arial;-inkscape-font-specification:Arial;text-align:start;text-anchor:start"
           id="path27959" />
        <path
           d="m 130.09764,264.97585 0.3615,0.0537 q 0.0227,0.16732 0.12601,0.24376 0.1384,0.10328 0.37803,0.10328 0.25821,0 0.39868,-0.10328 0.14047,-0.10329 0.19005,-0.28921 0.0289,-0.11361 0.0268,-0.47718 -0.24375,0.28714 -0.60732,0.28714 -0.4524,0 -0.70028,-0.32639 -0.24789,-0.32638 -0.24789,-0.78291 0,-0.31399 0.11362,-0.5784 0.11361,-0.26648 0.32845,-0.41108 0.2169,-0.1446 0.50817,-0.1446 0.38835,0 0.64037,0.31399 v -0.26442 h 0.34291 v 1.89634 q 0,0.5123 -0.10535,0.72507 -0.10329,0.21484 -0.33052,0.33878 -0.22516,0.12395 -0.55568,0.12395 -0.39249,0 -0.63418,-0.17766 -0.24169,-0.17558 -0.23342,-0.53089 z m 0.30779,-1.31793 q 0,0.43173 0.17146,0.63004 0.17145,0.19831 0.42967,0.19831 0.25615,0 0.42967,-0.19624 0.17352,-0.19831 0.17352,-0.61972 0,-0.40282 -0.17972,-0.60732 -0.17765,-0.20451 -0.42967,-0.20451 -0.24789,0 -0.42141,0.20244 -0.17352,0.20038 -0.17352,0.597 z"
           style="font-style:normal;font-family:Arial;-inkscape-font-specification:Arial;text-align:start;text-anchor:start"
           id="path27961" />
        <path
           d="m 132.50214,265.63895 -0.0413,-0.34911 q 0.12188,0.033 0.21277,0.033 0.12394,0 0.19831,-0.0413 0.0744,-0.0413 0.12188,-0.11568 0.0351,-0.0558 0.11361,-0.27681 0.0103,-0.031 0.033,-0.0909 l -0.83249,-2.19794 h 0.40076 l 0.45652,1.27043 q 0.0888,0.24169 0.15906,0.50817 0.064,-0.25615 0.15287,-0.49991 l 0.46892,-1.27869 h 0.37183 l -0.83456,2.23099 q -0.13427,0.3615 -0.20863,0.49784 -0.0992,0.18385 -0.22723,0.26855 -0.12808,0.0868 -0.30573,0.0868 -0.10742,0 -0.23963,-0.0454 z"
           style="font-style:normal;font-family:Arial;-inkscape-font-specification:Arial;text-align:start;text-anchor:start"
           id="path27963" />
      </g>
    </g>
  </g>
  <text
     xml:space="preserve"
     transform="matrix(0.26458333,0,0,0.26458333,6.241797,-1.8920098)"
     id="text3027"
     style="font-style:italic;font-variant:normal;font-weight:bold;font-stretch:normal;font-size:26.6667px;line-height:1;font-family:Calibri;-inkscape-font-specification:'Calibri Bold Italic';font-variant-ligatures:none;text-align:center;letter-spacing:0px;word-spacing:0px;writing-mode:lr-tb;white-space:pre;shape-inside:url(#rect3029-9);fill:#ffffff;opacity:0.85"
     x="-47.173828"
     y="0"><tspan
       x="-3.9296875"
       y="-22.779272"
       id="tspan1349"><tspan
         style="text-align:start"
         id="tspan1347">Previous Color: #1c54ddff</tspan></tspan></text>
</svg>
